<?xml version="1.0" encoding="UTF-8" standalone="no"?>
<!-- Created with Inkscape (http://www.inkscape.org/) -->

<svg
   width="160mm"
   height="65mm"
   viewBox="0 0 604.72438 245.66929"
   version="1.1"
   id="svg1"
   xml:space="preserve"
   inkscape:version="1.3.2 (091e20ef0f, 2023-11-25)"
   sodipodi:docname="feedbackmethodoverview.svg"
   xmlns:inkscape="http://www.inkscape.org/namespaces/inkscape"
   xmlns:sodipodi="http://sodipodi.sourceforge.net/DTD/sodipodi-0.dtd"
   xmlns="http://www.w3.org/2000/svg"
   xmlns:svg="http://www.w3.org/2000/svg"><sodipodi:namedview
     id="namedview1"
     pagecolor="#ffffff"
     bordercolor="#000000"
     borderopacity="0.25"
     inkscape:showpageshadow="2"
     inkscape:pageopacity="0.0"
     inkscape:pagecheckerboard="0"
     inkscape:deskcolor="#d1d1d1"
     inkscape:document-units="mm"
     inkscape:zoom="1.8827923"
     inkscape:cx="328.23588"
     inkscape:cy="23.635108"
     inkscape:window-width="2302"
     inkscape:window-height="2104"
     inkscape:window-x="102"
     inkscape:window-y="102"
     inkscape:window-maximized="0"
     inkscape:current-layer="g1" /><defs
     id="defs1"><rect
       x="624.52576"
       y="193.55714"
       width="72.878258"
       height="23.079508"
       id="rect11" /><rect
       x="622.09778"
       y="215.66695"
       width="72.072853"
       height="16.414736"
       id="rect10" /><rect
       x="212.26193"
       y="330.18134"
       width="92.906319"
       height="17.407923"
       id="rect9" /><marker
       style="overflow:visible"
       id="DartArrow"
       refX="0"
       refY="0"
       orient="auto-start-reverse"
       inkscape:stockid="Dart arrow"
       markerWidth="1"
       markerHeight="1"
       viewBox="0 0 1 1"
       inkscape:isstock="true"
       inkscape:collect="always"
       preserveAspectRatio="xMidYMid"><path
         style="fill:context-stroke;fill-rule:evenodd;stroke:none"
         d="M 0,0 5,-5 -12.5,0 5,5 Z"
         transform="scale(-0.5)"
         id="path9" /></marker><marker
       style="overflow:visible"
       id="ConcaveTriangle"
       refX="0"
       refY="0"
       orient="auto-start-reverse"
       inkscape:stockid="Concave triangle arrow"
       markerWidth="1"
       markerHeight="1"
       viewBox="0 0 1 1"
       inkscape:isstock="true"
       inkscape:collect="always"
       preserveAspectRatio="xMidYMid"><path
         transform="scale(0.7)"
         d="M -2,-4 9,0 -2,4 c 2,-2.33 2,-5.66 0,-8 z"
         style="fill:context-stroke;fill-rule:evenodd;stroke:none"
         id="path7" /></marker><marker
       style="overflow:visible"
       id="ConcaveTriangle-3"
       refX="0"
       refY="0"
       orient="auto-start-reverse"
       inkscape:stockid="Concave triangle arrow"
       markerWidth="1"
       markerHeight="1"
       viewBox="0 0 1 1"
       inkscape:isstock="true"
       inkscape:collect="always"
       preserveAspectRatio="xMidYMid"><path
         transform="scale(0.7)"
         d="M -2,-4 9,0 -2,4 c 2,-2.33 2,-5.66 0,-8 z"
         style="fill:context-stroke;fill-rule:evenodd;stroke:none"
         id="path7-1" /></marker><marker
       style="overflow:visible"
       id="ConcaveTriangle-8"
       refX="0"
       refY="0"
       orient="auto-start-reverse"
       inkscape:stockid="Concave triangle arrow"
       markerWidth="1"
       markerHeight="1"
       viewBox="0 0 1 1"
       inkscape:isstock="true"
       inkscape:collect="always"
       preserveAspectRatio="xMidYMid"><path
         transform="scale(0.7)"
         d="M -2,-4 9,0 -2,4 c 2,-2.33 2,-5.66 0,-8 z"
         style="fill:context-stroke;fill-rule:evenodd;stroke:none"
         id="path7-9" /></marker><rect
       x="212.26193"
       y="330.18134"
       width="92.906319"
       height="17.407923"
       id="rect9-3" /><marker
       style="overflow:visible"
       id="ConcaveTriangle-8-7"
       refX="0"
       refY="0"
       orient="auto-start-reverse"
       inkscape:stockid="Concave triangle arrow"
       markerWidth="1"
       markerHeight="1"
       viewBox="0 0 1 1"
       inkscape:isstock="true"
       inkscape:collect="always"
       preserveAspectRatio="xMidYMid"><path
         transform="scale(0.7)"
         d="M -2,-4 9,0 -2,4 c 2,-2.33 2,-5.66 0,-8 z"
         style="fill:context-stroke;fill-rule:evenodd;stroke:none"
         id="path7-9-5" /></marker><marker
       style="overflow:visible"
       id="ConcaveTriangle-8-8"
       refX="0"
       refY="0"
       orient="auto-start-reverse"
       inkscape:stockid="Concave triangle arrow"
       markerWidth="1"
       markerHeight="1"
       viewBox="0 0 1 1"
       inkscape:isstock="true"
       inkscape:collect="always"
       preserveAspectRatio="xMidYMid"><path
         transform="scale(0.7)"
         d="M -2,-4 9,0 -2,4 c 2,-2.33 2,-5.66 0,-8 z"
         style="fill:context-stroke;fill-rule:evenodd;stroke:none"
         id="path7-9-9" /></marker><marker
       style="overflow:visible"
       id="ConcaveTriangle-8-86"
       refX="0"
       refY="0"
       orient="auto-start-reverse"
       inkscape:stockid="Concave triangle arrow"
       markerWidth="1"
       markerHeight="1"
       viewBox="0 0 1 1"
       inkscape:isstock="true"
       inkscape:collect="always"
       preserveAspectRatio="xMidYMid"><path
         transform="scale(0.7)"
         d="M -2,-4 9,0 -2,4 c 2,-2.33 2,-5.66 0,-8 z"
         style="fill:context-stroke;fill-rule:evenodd;stroke:none"
         id="path7-9-0" /></marker><marker
       style="overflow:visible"
       id="ConcaveTriangle-8-76"
       refX="0"
       refY="0"
       orient="auto-start-reverse"
       inkscape:stockid="Concave triangle arrow"
       markerWidth="1"
       markerHeight="1"
       viewBox="0 0 1 1"
       inkscape:isstock="true"
       inkscape:collect="always"
       preserveAspectRatio="xMidYMid"><path
         transform="scale(0.7)"
         d="M -2,-4 9,0 -2,4 c 2,-2.33 2,-5.66 0,-8 z"
         style="fill:context-stroke;fill-rule:evenodd;stroke:none"
         id="path7-9-4" /></marker></defs><g
     inkscape:label="Layer 1"
     inkscape:groupmode="layer"
     id="layer1"
     transform="translate(-119.58348,-121.61611)"><path
       d="m 677.86162,133.03739 a 4,4 0 0 1 4,4 4,4 0 0 1 -4,4 4,4 0 0 1 -4,-4 4,4 0 0 1 4,-4 m 0,10 c 4.42,0 8,1.79 8,4 v 2 h -16 v -2 c 0,-2.21 3.58,-4 8,-4 z"
       id="path1" /><path
       d="m 620.72925,220.26075 c -0.13,0 -0.26,0 -0.39,0.04 l -1.61,-3.25 c 0.45,-0.45 0.75,-1.08 0.75,-1.79 0,-1.38 -1.12,-2.5 -2.5,-2.5 -0.13,0 -0.25,0 -0.39,0.04 l -1.63,-3.25 c 0.48,-0.45 0.77,-1.08 0.77,-1.79 0,-1.38 -1.12,-2.5 -2.5,-2.5 -1.38,0 -2.5,1.12 -2.5,2.5 0,0.71 0.29,1.34 0.76,1.79 l -1.62,3.25 c -0.14,-0.04 -0.26,-0.04 -0.39,-0.04 -1.38,0 -2.5,1.12 -2.5,2.5 0,0.71 0.3,1.34 0.75,1.79 l -1.61,3.25 c -0.13,-0.04 -0.26,-0.04 -0.39,-0.04 -1.38,0 -2.5,1.12 -2.5,2.5 0,1.38 1.12,2.5 2.5,2.5 1.38,0 2.5,-1.12 2.5,-2.5 0,-0.7 -0.29,-1.34 -0.76,-1.79 l 1.62,-3.25 c 0.14,0.04 0.26,0.04 0.39,0.04 0.13,0 0.25,0 0.39,-0.04 l 1.63,3.25 c -0.47,0.45 -0.77,1.09 -0.77,1.79 0,1.38 1.12,2.5 2.5,2.5 1.38,0 2.5,-1.12 2.5,-2.5 0,-1.38 -1.12,-2.5 -2.5,-2.5 -0.13,0 -0.26,0 -0.39,0.04 l -1.61,-3.25 c 0.46,-0.45 0.75,-1.08 0.75,-1.79 0,-0.71 -0.29,-1.34 -0.75,-1.79 l 1.61,-3.25 c 0.13,0.04 0.26,0.04 0.39,0.04 0.13,0 0.26,0 0.39,-0.04 l 1.61,3.25 c -0.45,0.45 -0.75,1.09 -0.75,1.79 0,1.38 1.12,2.5 2.5,2.5 0.13,0 0.25,0 0.39,-0.04 l 1.63,3.25 c -0.47,0.45 -0.77,1.09 -0.77,1.79 0,1.38 1.12,2.5 2.5,2.5 1.38,0 2.5,-1.12 2.5,-2.5 0,-1.38 -1.12,-2.5 -2.5,-2.5 z"
       id="path1-3-2" /><g
       id="g2"
       transform="translate(19.303425,11.421284)"><path
         d="m 398.62829,208.83947 c -0.13,0 -0.26,0 -0.39,0.04 l -1.61,-3.25 c 0.45,-0.45 0.75,-1.08 0.75,-1.79 0,-1.38 -1.12,-2.5 -2.5,-2.5 -0.13,0 -0.25,0 -0.39,0.04 l -1.63,-3.25 c 0.48,-0.45 0.77,-1.08 0.77,-1.79 0,-1.38 -1.12,-2.5 -2.5,-2.5 -1.38,0 -2.5,1.12 -2.5,2.5 0,0.71 0.29,1.34 0.76,1.79 l -1.62,3.25 c -0.14,-0.04 -0.26,-0.04 -0.39,-0.04 -1.38,0 -2.5,1.12 -2.5,2.5 0,0.71 0.3,1.34 0.75,1.79 l -1.61,3.25 c -0.13,-0.04 -0.26,-0.04 -0.39,-0.04 -1.38,0 -2.5,1.12 -2.5,2.5 0,1.38 1.12,2.5 2.5,2.5 1.38,0 2.5,-1.12 2.5,-2.5 0,-0.7 -0.29,-1.34 -0.76,-1.79 l 1.62,-3.25 c 0.14,0.04 0.26,0.04 0.39,0.04 0.13,0 0.25,0 0.39,-0.04 l 1.63,3.25 c -0.47,0.45 -0.77,1.09 -0.77,1.79 0,1.38 1.12,2.5 2.5,2.5 1.38,0 2.5,-1.12 2.5,-2.5 0,-1.38 -1.12,-2.5 -2.5,-2.5 -0.13,0 -0.26,0 -0.39,0.04 l -1.61,-3.25 c 0.46,-0.45 0.75,-1.08 0.75,-1.79 0,-0.71 -0.29,-1.34 -0.75,-1.79 l 1.61,-3.25 c 0.13,0.04 0.26,0.04 0.39,0.04 0.13,0 0.26,0 0.39,-0.04 l 1.61,3.25 c -0.45,0.45 -0.75,1.09 -0.75,1.79 0,1.38 1.12,2.5 2.5,2.5 0.13,0 0.25,0 0.39,-0.04 l 1.63,3.25 c -0.47,0.45 -0.77,1.09 -0.77,1.79 0,1.38 1.12,2.5 2.5,2.5 1.38,0 2.5,-1.12 2.5,-2.5 0,-1.38 -1.12,-2.5 -2.5,-2.5 z"
         id="path1-3-7" /><path
         d="m 311.97287,208.83947 c -0.13,0 -0.26,0 -0.39,0.04 l -1.61,-3.25 c 0.45,-0.45 0.75,-1.08 0.75,-1.79 0,-1.38 -1.12,-2.5 -2.5,-2.5 -0.13,0 -0.25,0 -0.39,0.04 l -1.63,-3.25 c 0.48,-0.45 0.77,-1.08 0.77,-1.79 0,-1.38 -1.12,-2.5 -2.5,-2.5 -1.38,0 -2.5,1.12 -2.5,2.5 0,0.71 0.29,1.34 0.76,1.79 l -1.62,3.25 c -0.14,-0.04 -0.26,-0.04 -0.39,-0.04 -1.38,0 -2.5,1.12 -2.5,2.5 0,0.71 0.3,1.34 0.75,1.79 l -1.61,3.25 c -0.13,-0.04 -0.26,-0.04 -0.39,-0.04 -1.38,0 -2.5,1.12 -2.5,2.5 0,1.38 1.12,2.5 2.5,2.5 1.38,0 2.5,-1.12 2.5,-2.5 0,-0.7 -0.29,-1.34 -0.76,-1.79 l 1.62,-3.25 c 0.14,0.04 0.26,0.04 0.39,0.04 0.13,0 0.25,0 0.39,-0.04 l 1.63,3.25 c -0.47,0.45 -0.77,1.09 -0.77,1.79 0,1.38 1.12,2.5 2.5,2.5 1.38,0 2.5,-1.12 2.5,-2.5 0,-1.38 -1.12,-2.5 -2.5,-2.5 -0.13,0 -0.26,0 -0.39,0.04 l -1.61,-3.25 c 0.46,-0.45 0.75,-1.08 0.75,-1.79 0,-0.71 -0.29,-1.34 -0.75,-1.79 l 1.61,-3.25 c 0.13,0.04 0.26,0.04 0.39,0.04 0.13,0 0.26,0 0.39,-0.04 l 1.61,3.25 c -0.45,0.45 -0.75,1.09 -0.75,1.79 0,1.38 1.12,2.5 2.5,2.5 0.13,0 0.25,0 0.39,-0.04 l 1.63,3.25 c -0.47,0.45 -0.77,1.09 -0.77,1.79 0,1.38 1.12,2.5 2.5,2.5 1.38,0 2.5,-1.12 2.5,-2.5 0,-1.38 -1.12,-2.5 -2.5,-2.5 z"
         id="path1-3-29" /><path
         d="m 225.31744,208.83947 c -0.13,0 -0.26,0 -0.39,0.04 l -1.61,-3.25 c 0.45,-0.45 0.75,-1.08 0.75,-1.79 0,-1.38 -1.12,-2.5 -2.5,-2.5 -0.13,0 -0.25,0 -0.39,0.04 l -1.63,-3.25 c 0.48,-0.45 0.77,-1.08 0.77,-1.79 0,-1.38 -1.12,-2.5 -2.5,-2.5 -1.38,0 -2.5,1.12 -2.5,2.5 0,0.71 0.29,1.34 0.76,1.79 l -1.62,3.25 c -0.14,-0.04 -0.26,-0.04 -0.39,-0.04 -1.38,0 -2.5,1.12 -2.5,2.5 0,0.71 0.3,1.34 0.75,1.79 l -1.61,3.25 c -0.13,-0.04 -0.26,-0.04 -0.39,-0.04 -1.38,0 -2.5,1.12 -2.5,2.5 0,1.38 1.12,2.5 2.5,2.5 1.38,0 2.5,-1.12 2.5,-2.5 0,-0.7 -0.29,-1.34 -0.76,-1.79 l 1.62,-3.25 c 0.14,0.04 0.26,0.04 0.39,0.04 0.13,0 0.25,0 0.39,-0.04 l 1.63,3.25 c -0.47,0.45 -0.77,1.09 -0.77,1.79 0,1.38 1.12,2.5 2.5,2.5 1.38,0 2.5,-1.12 2.5,-2.5 0,-1.38 -1.12,-2.5 -2.5,-2.5 -0.13,0 -0.26,0 -0.39,0.04 l -1.61,-3.25 c 0.46,-0.45 0.75,-1.08 0.75,-1.79 0,-0.71 -0.29,-1.34 -0.75,-1.79 l 1.61,-3.25 c 0.13,0.04 0.26,0.04 0.39,0.04 0.13,0 0.26,0 0.39,-0.04 l 1.61,3.25 c -0.45,0.45 -0.75,1.09 -0.75,1.79 0,1.38 1.12,2.5 2.5,2.5 0.13,0 0.25,0 0.39,-0.04 l 1.63,3.25 c -0.47,0.45 -0.77,1.09 -0.77,1.79 0,1.38 1.12,2.5 2.5,2.5 1.38,0 2.5,-1.12 2.5,-2.5 0,-1.38 -1.12,-2.5 -2.5,-2.5 z"
         id="path1-3-4" /><path
         d="m 138.66202,208.83947 c -0.13,0 -0.26,0 -0.39,0.04 l -1.61,-3.25 c 0.45,-0.45 0.75,-1.08 0.75,-1.79 0,-1.38 -1.12,-2.5 -2.5,-2.5 -0.13,0 -0.25,0 -0.39,0.04 l -1.63,-3.25 c 0.48,-0.45 0.77,-1.08 0.77,-1.79 0,-1.38 -1.12,-2.5 -2.5,-2.5 -1.38,0 -2.5,1.12 -2.5,2.5 0,0.71 0.29,1.34 0.76,1.79 l -1.62,3.25 c -0.14,-0.04 -0.26,-0.04 -0.39,-0.04 -1.38,0 -2.5,1.12 -2.5,2.5 0,0.71 0.3,1.34 0.75,1.79 l -1.61,3.25 c -0.13,-0.04 -0.26,-0.04 -0.39,-0.04 -1.38,0 -2.5,1.12 -2.5,2.5 0,1.38 1.12,2.5 2.5,2.5 1.38,0 2.5,-1.12 2.5,-2.5 0,-0.7 -0.29,-1.34 -0.76,-1.79 l 1.62,-3.25 c 0.14,0.04 0.26,0.04 0.39,0.04 0.13,0 0.25,0 0.39,-0.04 l 1.63,3.25 c -0.47,0.45 -0.77,1.09 -0.77,1.79 0,1.38 1.12,2.5 2.5,2.5 1.38,0 2.5,-1.12 2.5,-2.5 0,-1.38 -1.12,-2.5 -2.5,-2.5 -0.13,0 -0.26,0 -0.39,0.04 l -1.61,-3.25 c 0.46,-0.45 0.75,-1.08 0.75,-1.79 0,-0.71 -0.29,-1.34 -0.75,-1.79 l 1.61,-3.25 c 0.13,0.04 0.26,0.04 0.39,0.04 0.13,0 0.26,0 0.39,-0.04 l 1.61,3.25 c -0.45,0.45 -0.75,1.09 -0.75,1.79 0,1.38 1.12,2.5 2.5,2.5 0.13,0 0.25,0 0.39,-0.04 l 1.63,3.25 c -0.47,0.45 -0.77,1.09 -0.77,1.79 0,1.38 1.12,2.5 2.5,2.5 1.38,0 2.5,-1.12 2.5,-2.5 0,-1.38 -1.12,-2.5 -2.5,-2.5 z"
         id="path1-3-5" /></g><g
       id="g3"
       transform="matrix(0.5418082,0,0,0.5418082,209.66651,160.77376)"><path
         d="m 128.87841,293.95453 h -1.5 v -4 c 0,-1.11 -0.9,-2 -2,-2 h -4 v -1.5 a 2.5,2.5 0 0 0 -2.5,-2.5 2.5,2.5 0 0 0 -2.5,2.5 v 1.5 h -4 a 2,2 0 0 0 -2,2 v 3.8 h 1.5 c 1.5,0 2.7,1.2 2.7,2.7 0,1.5 -1.2,2.7 -2.7,2.7 h -1.5 v 3.8 a 2,2 0 0 0 2,2 h 3.8 v -1.5 c 0,-1.5 1.2,-2.7 2.7,-2.7 1.5,0 2.7,1.2 2.7,2.7 v 1.5 h 3.8 a 2,2 0 0 0 2,-2 v -4 h 1.5 a 2.5,2.5 0 0 0 2.5,-2.5 2.5,2.5 0 0 0 -2.5,-2.5 z"
         id="path1-1" /><path
         d="m 147.78408,293.95453 h -1.5 v -4 c 0,-1.11 -0.9,-2 -2,-2 h -4 v -1.5 a 2.5,2.5 0 0 0 -2.5,-2.5 2.5,2.5 0 0 0 -2.5,2.5 v 1.5 h -4 a 2,2 0 0 0 -2,2 v 3.8 h 1.5 c 1.5,0 2.7,1.2 2.7,2.7 0,1.5 -1.2,2.7 -2.7,2.7 h -1.5 v 3.8 a 2,2 0 0 0 2,2 h 3.8 v -1.5 c 0,-1.5 1.2,-2.7 2.7,-2.7 1.5,0 2.7,1.2 2.7,2.7 v 1.5 h 3.8 a 2,2 0 0 0 2,-2 v -4 h 1.5 a 2.5,2.5 0 0 0 2.5,-2.5 2.5,2.5 0 0 0 -2.5,-2.5 z"
         id="path1-1-2" /><path
         d="m 128.87841,312.78657 h -1.5 v -4 c 0,-1.11 -0.9,-2 -2,-2 h -4 v -1.5 a 2.5,2.5 0 0 0 -2.5,-2.5 2.5,2.5 0 0 0 -2.5,2.5 v 1.5 h -4 a 2,2 0 0 0 -2,2 v 3.8 h 1.5 c 1.5,0 2.7,1.2 2.7,2.7 0,1.5 -1.2,2.7 -2.7,2.7 h -1.5 v 3.8 a 2,2 0 0 0 2,2 h 3.8 v -1.5 c 0,-1.5 1.2,-2.7 2.7,-2.7 1.5,0 2.7,1.2 2.7,2.7 v 1.5 h 3.8 a 2,2 0 0 0 2,-2 v -4 h 1.5 a 2.5,2.5 0 0 0 2.5,-2.5 2.5,2.5 0 0 0 -2.5,-2.5 z"
         id="path1-1-5" /><path
         d="m 147.78408,312.78657 h -1.5 v -4 c 0,-1.11 -0.9,-2 -2,-2 h -4 v -1.5 a 2.5,2.5 0 0 0 -2.5,-2.5 2.5,2.5 0 0 0 -2.5,2.5 v 1.5 h -4 a 2,2 0 0 0 -2,2 v 3.8 h 1.5 c 1.5,0 2.7,1.2 2.7,2.7 0,1.5 -1.2,2.7 -2.7,2.7 h -1.5 v 3.8 a 2,2 0 0 0 2,2 h 3.8 v -1.5 c 0,-1.5 1.2,-2.7 2.7,-2.7 1.5,0 2.7,1.2 2.7,2.7 v 1.5 h 3.8 a 2,2 0 0 0 2,-2 v -4 h 1.5 a 2.5,2.5 0 0 0 2.5,-2.5 2.5,2.5 0 0 0 -2.5,-2.5 z"
         id="path1-1-6" /></g><path
       d="m 674.91307,320.20398 h 12 v 1 h 3 v 2 h -3 v 2 h 3 v 2 h -3 v 2 h 3 v 2 h -3 v 2 h 3 v 2 h -3 v 1 h -12 v -1 h -3 v -2 h 3 v -2 h -3 v -2 h 3 v -2 h -3 v -2 h 3 v -2 h -3 v -2 h 3 v -1 m 5,11 v 3 h 1 v -3 h -1 m 2,0 v 3 h 1 v -3 h -1 m 2,0 v 3 h 1 v -3 z"
       id="path1-3" /><path
       d="m 674.81037,155.52639 -6.98397,6.98398 -3.20099,-3.20099 0.82062,-0.82062 2.38037,2.37455 6.16335,-6.15753 z"
       id="path1-2"
       style="stroke-width:0.581998" /><path
       d="m 690.85622,155.31885 -0.82061,-0.82062 -3.25337,3.25337 -3.25337,-3.25337 -0.82062,0.82062 3.25337,3.25337 -3.25337,3.25336 0.82062,0.82062 3.25337,-3.25337 3.25337,3.25337 0.82061,-0.82062 -3.25336,-3.25336 z"
       id="path1-4"
       style="stroke-width:0.581998" /><path
       d="m 605.22925,133.03739 c -1.11,0 -2,0.89 -2,2 v 14 c 0,1.11 0.89,2 2,2 h 14 c 1.11,0 2,-0.89 2,-2 v -14 c 0,-1.11 -0.89,-2 -2,-2 h -14 m 0,2 h 14 v 14 h -14 v -14 m 2,2 v 2 h 10 v -2 h -10 m 0,4 v 2 h 10 v -2 h -10 m 0,4 v 2 h 7 v -2 z"
       id="path1-6-2" /><g
       id="g1"><path
         d="m 229.78754,133.03739 c -1.11,0 -2,0.89 -2,2 v 14 c 0,1.11 0.89,2 2,2 h 14 c 1.11,0 2,-0.89 2,-2 v -14 c 0,-1.11 -0.89,-2 -2,-2 h -14 m 0,2 h 14 v 14 h -14 v -14 m 2,2 v 2 h 10 v -2 h -10 m 0,4 v 2 h 10 v -2 h -10 m 0,4 v 2 h 7 v -2 z"
         id="path1-6" /><path
         d="m 142.46545,133.03739 c -1.11,0 -2,0.89 -2,2 v 14 c 0,1.11 0.89,2 2,2 h 14 c 1.11,0 2,-0.89 2,-2 v -14 c 0,-1.11 -0.89,-2 -2,-2 h -14 m 0,2 h 14 v 14 h -14 v -14 m 2,2 v 2 h 10 v -2 h -10 m 0,4 v 2 h 10 v -2 h -10 m 0,4 v 2 h 7 v -2 z"
         id="path1-6-3" /><path
         d="m 317.10963,133.03739 c -1.11,0 -2,0.89 -2,2 v 14 c 0,1.11 0.89,2 2,2 h 14 c 1.11,0 2,-0.89 2,-2 v -14 c 0,-1.11 -0.89,-2 -2,-2 h -14 m 0,2 h 14 v 14 h -14 v -14 m 2,2 v 2 h 10 v -2 h -10 m 0,4 v 2 h 10 v -2 h -10 m 0,4 v 2 h 7 v -2 z"
         id="path1-6-26" /><path
         d="m 404.43172,133.03739 c -1.11,0 -2,0.89 -2,2 v 14 c 0,1.11 0.89,2 2,2 h 14 c 1.11,0 2,-0.89 2,-2 v -14 c 0,-1.11 -0.89,-2 -2,-2 h -14 m 0,2 h 14 v 14 h -14 v -14 m 2,2 v 2 h 10 v -2 h -10 m 0,4 v 2 h 10 v -2 h -10 m 0,4 v 2 h 7 v -2 z"
         id="path1-6-9" /><rect
         style="fill:#eeff01;fill-opacity:0.503086;stroke:none;stroke-width:1.00157;stroke-dasharray:none;stroke-opacity:1"
         id="rect13"
         width="11.777415"
         height="3.2311604"
         x="143.61876"
         y="136.33681" /><rect
         style="fill:#eeff01;fill-opacity:0.503086;stroke:none;stroke-width:1.00157;stroke-dasharray:none;stroke-opacity:1"
         id="rect13-6"
         width="11.777415"
         height="3.2311604"
         x="230.4185"
         y="140.47337" /><rect
         style="fill:#eeff01;fill-opacity:0.503086;stroke:none;stroke-width:0.875986;stroke-dasharray:none;stroke-opacity:1"
         id="rect13-8"
         width="9.0091066"
         height="3.2311604"
         x="318.08435"
         y="144.34433" /><rect
         style="fill:#eeff01;fill-opacity:0.503086;stroke:none;stroke-width:1.00157;stroke-dasharray:none;stroke-opacity:1"
         id="rect13-3"
         width="11.777415"
         height="3.2311604"
         x="405.59048"
         y="136.6431" /><rect
         style="fill:#eeff01;fill-opacity:0.503086;stroke:none;stroke-width:1.00157;stroke-dasharray:none;stroke-opacity:1"
         id="rect13-4"
         width="11.777415"
         height="3.2311604"
         x="606.20178"
         y="140.51608" /><rect
         style="fill:#ff0101;fill-opacity:0.503086;stroke:none;stroke-width:1.00157;stroke-dasharray:none;stroke-opacity:1"
         id="rect13-7"
         width="11.777415"
         height="3.2311604"
         x="230.90599"
         y="136.58649" /><rect
         style="fill:#25ff01;fill-opacity:0.503086;stroke:none;stroke-width:1.00157;stroke-dasharray:none;stroke-opacity:1"
         id="rect13-1"
         width="11.777415"
         height="3.2311604"
         x="405.47427"
         y="140.41389" /><rect
         style="fill:#02ff01;fill-opacity:0.503086;stroke:none;stroke-width:1.00157;stroke-dasharray:none;stroke-opacity:1"
         id="rect13-41"
         width="11.777415"
         height="3.2311604"
         x="605.86438"
         y="136.4875" /><path
         style="fill:#000000;fill-opacity:1;stroke:#000000;stroke-width:1.00157;stroke-dasharray:none;stroke-opacity:1;marker-end:url(#ConcaveTriangle-8)"
         d="m 150.37817,154.06037 v 41.44442"
         id="path14" /><path
         style="fill:#000000;fill-opacity:1;stroke:#000000;stroke-width:1.00157;stroke-dasharray:none;stroke-opacity:1;marker-end:url(#ConcaveTriangle-8-7)"
         d="m 237.36307,154.06037 v 41.44442"
         id="path14-8" /><path
         style="fill:#000000;fill-opacity:1;stroke:#000000;stroke-width:1.00157;stroke-dasharray:none;stroke-opacity:1;marker-end:url(#ConcaveTriangle-8-8)"
         d="m 323.92935,154.06037 v 41.44442"
         id="path14-3" /><path
         style="fill:#000000;fill-opacity:1;stroke:#000000;stroke-width:1.00157;stroke-dasharray:none;stroke-opacity:1;marker-end:url(#ConcaveTriangle-8-86)"
         d="m 410.6533,154.06037 v 41.44442"
         id="path14-88" /><path
         style="fill:#000000;fill-opacity:1;stroke:#000000;stroke-width:1.00157;stroke-dasharray:none;stroke-opacity:1;marker-end:url(#ConcaveTriangle-8-76)"
         d="m 612.80796,154.06037 v 41.44442"
         id="path14-30" /></g><path
       style="fill:#000000;stroke:#000000;stroke-width:1.00157;stroke-dasharray:none;stroke-opacity:1;marker-end:url(#ConcaveTriangle)"
       d="m 158.35996,235.83766 103.22843,76.30967"
       id="path3" /><path
       style="fill:#000000;stroke:#000000;stroke-width:1.00157;stroke-dasharray:none;stroke-opacity:1;marker-end:url(#ConcaveTriangle-8)"
       d="M 401.25721,235.53297 298.02878,311.84264"
       id="path3-6" /><path
       style="fill:#000000;stroke:#000000;stroke-width:1.00157;stroke-dasharray:none;stroke-opacity:1"
       d="M 270.36864,309.36435 Z"
       id="path5" /><path
       style="fill:#000000;stroke:#000000;stroke-width:1.00157;stroke-dasharray:none;stroke-opacity:1;marker-end:url(#ConcaveTriangle)"
       d="m 240.15784,231.2781 28.73056,76.1835"
       id="path6" /><path
       style="fill:#000000;stroke:#000000;stroke-width:1.00157;stroke-dasharray:none;stroke-opacity:1;marker-end:url(#ConcaveTriangle-3)"
       d="m 320.59208,230.87264 -28.73056,76.1835"
       id="path6-2" /><path
       style="fill:#000000;stroke:#000000;stroke-width:1.00157;stroke-dasharray:none;stroke-opacity:1;marker-end:url(#DartArrow)"
       d="M 300.13199,326.93805 H 653.72144"
       id="path8" /><text
       xml:space="preserve"
       id="text9"
       style="font-size:14.6667px;white-space:pre;shape-inside:url(#rect9);fill:#000000;stroke:#000000;stroke-width:1.00157;stroke-dasharray:none;stroke-opacity:1"
       transform="translate(37.782292,9.9028949)"><tspan
         x="212.26172"
         y="343.52651"
         id="tspan3"><tspan
           style="font-weight:300;font-family:'Noto Sans';-inkscape-font-specification:'Noto Sans Light'"
           id="tspan1">Patterns</tspan></tspan></text><text
       xml:space="preserve"
       id="text9-8"
       style="font-size:14.6667px;white-space:pre;shape-inside:url(#rect9-3);fill:#000000;stroke:#000000;stroke-width:1.00157;stroke-dasharray:none;stroke-opacity:1"
       transform="translate(448.28203,11.447466)"><tspan
         x="212.26172"
         y="343.52651"
         id="tspan5"><tspan
           style="font-weight:300;font-family:'Noto Sans';-inkscape-font-specification:'Noto Sans Light'"
           id="tspan4">Model</tspan></tspan></text><text
       xml:space="preserve"
       id="text10"
       style="font-style:normal;font-variant:normal;font-weight:300;font-stretch:normal;font-size:14.6667px;font-family:'Noto Sans';-inkscape-font-specification:'Noto Sans Light';white-space:pre;shape-inside:url(#rect10);fill:#000000;stroke:#000000;stroke-width:1.00157;stroke-dasharray:none;stroke-opacity:1"><tspan
         x="622.09766"
         y="245.4269"
         id="tspan7"><tspan
           dx="0 12.789359"
           id="tspan6">Ma</tspan></tspan></text><text
       xml:space="preserve"
       id="text11"
       style="font-style:normal;font-variant:normal;font-weight:300;font-stretch:normal;font-size:14.6667px;font-family:'Noto Sans';-inkscape-font-specification:'Noto Sans Light';white-space:pre;shape-inside:url(#rect11);fill:#000000;stroke:#000000;stroke-width:1.00157;stroke-dasharray:none;stroke-opacity:1"
       transform="translate(30.083254,17.760373)"><tspan
         x="624.52539"
         y="206.90151"
         id="tspan8">Match?</tspan></text><path
       style="fill:#000000;stroke:#000000;stroke-width:1.00157;stroke-dasharray:none;stroke-opacity:1;marker-end:url(#ConcaveTriangle-8)"
       d="M 681.15807,311.31992 V 234.32221"
       id="path11" /><path
       style="fill:#000000;stroke:#000000;stroke-width:1.00157;stroke-dasharray:none;stroke-opacity:1;marker-end:url(#ConcaveTriangle-8)"
       d="m 629.88934,219.52269 h 15.96729"
       id="path12" /><path
       style="fill:#000000;stroke:#000000;stroke-width:1.00157;stroke-dasharray:none;stroke-opacity:1;marker-end:url(#ConcaveTriangle-8)"
       d="M 677.2396,209.10375 646.77647,153.49258"
       id="path13" /></g></svg>
