<?xml version="1.0" encoding="UTF-8" standalone="no"?>
<!-- Created with Inkscape (http://www.inkscape.org/) -->

<svg
   width="150mm"
   height="65mm"
   viewBox="0 0 566.92911 245.66929"
   version="1.1"
   id="svg1"
   xml:space="preserve"
   inkscape:version="1.3.2 (091e20ef0f, 2023-11-25)"
   sodipodi:docname="feedbackmethodoverview.svg"
   inkscape:export-filename="../../../../downloads/feedbackmethodoverview.png"
   inkscape:export-xdpi="96"
   inkscape:export-ydpi="96"
   xmlns:inkscape="http://www.inkscape.org/namespaces/inkscape"
   xmlns:sodipodi="http://sodipodi.sourceforge.net/DTD/sodipodi-0.dtd"
   xmlns="http://www.w3.org/2000/svg"
   xmlns:svg="http://www.w3.org/2000/svg"><sodipodi:namedview
     id="namedview1"
     pagecolor="#ffffff"
     bordercolor="#000000"
     borderopacity="0.25"
     inkscape:showpageshadow="2"
     inkscape:pageopacity="0.0"
     inkscape:pagecheckerboard="0"
     inkscape:deskcolor="#d1d1d1"
     inkscape:document-units="mm"
     inkscape:zoom="0.94139615"
     inkscape:cx="391.97101"
     inkscape:cy="295.8372"
     inkscape:window-width="1534"
     inkscape:window-height="2132"
     inkscape:window-x="10"
     inkscape:window-y="10"
     inkscape:window-maximized="0"
     inkscape:current-layer="layer1"
     inkscape:export-bgcolor="#ffffffff" /><defs
     id="defs1"><rect
       x="133.56245"
       y="130.90417"
       width="94.291634"
       height="20.221043"
       id="rect12" /><rect
       x="23.477077"
       y="80.721069"
       width="65.340591"
       height="30.699326"
       id="rect1" /><rect
       x="624.52576"
       y="193.55714"
       width="72.878258"
       height="23.079508"
       id="rect11" /><rect
       x="622.09778"
       y="215.66695"
       width="72.072853"
       height="16.414736"
       id="rect10" /><rect
       x="212.26193"
       y="330.18134"
       width="92.906319"
       height="17.407923"
       id="rect9" /><marker
       style="overflow:visible"
       id="DartArrow"
       refX="0"
       refY="0"
       orient="auto-start-reverse"
       inkscape:stockid="Dart arrow"
       markerWidth="1"
       markerHeight="1"
       viewBox="0 0 1 1"
       inkscape:isstock="true"
       inkscape:collect="always"
       preserveAspectRatio="xMidYMid"><path
         style="fill:context-stroke;fill-rule:evenodd;stroke:none"
         d="M 0,0 5,-5 -12.5,0 5,5 Z"
         transform="scale(-0.5)"
         id="path9" /></marker><marker
       style="overflow:visible"
       id="ConcaveTriangle"
       refX="0"
       refY="0"
       orient="auto-start-reverse"
       inkscape:stockid="Concave triangle arrow"
       markerWidth="1"
       markerHeight="1"
       viewBox="0 0 1 1"
       inkscape:isstock="true"
       inkscape:collect="always"
       preserveAspectRatio="xMidYMid"><path
         transform="scale(0.7)"
         d="M -2,-4 9,0 -2,4 c 2,-2.33 2,-5.66 0,-8 z"
         style="fill:context-stroke;fill-rule:evenodd;stroke:none"
         id="path7" /></marker><marker
       style="overflow:visible"
       id="ConcaveTriangle-3"
       refX="0"
       refY="0"
       orient="auto-start-reverse"
       inkscape:stockid="Concave triangle arrow"
       markerWidth="1"
       markerHeight="1"
       viewBox="0 0 1 1"
       inkscape:isstock="true"
       inkscape:collect="always"
       preserveAspectRatio="xMidYMid"><path
         transform="scale(0.7)"
         d="M -2,-4 9,0 -2,4 c 2,-2.33 2,-5.66 0,-8 z"
         style="fill:context-stroke;fill-rule:evenodd;stroke:none"
         id="path7-1" /></marker><marker
       style="overflow:visible"
       id="ConcaveTriangle-8"
       refX="0"
       refY="0"
       orient="auto-start-reverse"
       inkscape:stockid="Concave triangle arrow"
       markerWidth="1"
       markerHeight="1"
       viewBox="0 0 1 1"
       inkscape:isstock="true"
       inkscape:collect="always"
       preserveAspectRatio="xMidYMid"><path
         transform="scale(0.7)"
         d="M -2,-4 9,0 -2,4 c 2,-2.33 2,-5.66 0,-8 z"
         style="fill:context-stroke;fill-rule:evenodd;stroke:none"
         id="path7-9" /></marker><rect
       x="212.26193"
       y="330.18134"
       width="92.906319"
       height="17.407923"
       id="rect9-3" /><marker
       style="overflow:visible"
       id="ConcaveTriangle-8-7"
       refX="0"
       refY="0"
       orient="auto-start-reverse"
       inkscape:stockid="Concave triangle arrow"
       markerWidth="1"
       markerHeight="1"
       viewBox="0 0 1 1"
       inkscape:isstock="true"
       inkscape:collect="always"
       preserveAspectRatio="xMidYMid"><path
         transform="scale(0.7)"
         d="M -2,-4 9,0 -2,4 c 2,-2.33 2,-5.66 0,-8 z"
         style="fill:context-stroke;fill-rule:evenodd;stroke:none"
         id="path7-9-5" /></marker><marker
       style="overflow:visible"
       id="ConcaveTriangle-8-8"
       refX="0"
       refY="0"
       orient="auto-start-reverse"
       inkscape:stockid="Concave triangle arrow"
       markerWidth="1"
       markerHeight="1"
       viewBox="0 0 1 1"
       inkscape:isstock="true"
       inkscape:collect="always"
       preserveAspectRatio="xMidYMid"><path
         transform="scale(0.7)"
         d="M -2,-4 9,0 -2,4 c 2,-2.33 2,-5.66 0,-8 z"
         style="fill:context-stroke;fill-rule:evenodd;stroke:none"
         id="path7-9-9" /></marker><marker
       style="overflow:visible"
       id="ConcaveTriangle-8-86"
       refX="0"
       refY="0"
       orient="auto-start-reverse"
       inkscape:stockid="Concave triangle arrow"
       markerWidth="1"
       markerHeight="1"
       viewBox="0 0 1 1"
       inkscape:isstock="true"
       inkscape:collect="always"
       preserveAspectRatio="xMidYMid"><path
         transform="scale(0.7)"
         d="M -2,-4 9,0 -2,4 c 2,-2.33 2,-5.66 0,-8 z"
         style="fill:context-stroke;fill-rule:evenodd;stroke:none"
         id="path7-9-0" /></marker><marker
       style="overflow:visible"
       id="ConcaveTriangle-8-76"
       refX="0"
       refY="0"
       orient="auto-start-reverse"
       inkscape:stockid="Concave triangle arrow"
       markerWidth="1"
       markerHeight="1"
       viewBox="0 0 1 1"
       inkscape:isstock="true"
       inkscape:collect="always"
       preserveAspectRatio="xMidYMid"><path
         transform="scale(0.7)"
         d="M -2,-4 9,0 -2,4 c 2,-2.33 2,-5.66 0,-8 z"
         style="fill:context-stroke;fill-rule:evenodd;stroke:none"
         id="path7-9-4" /></marker></defs><g
     inkscape:label="Layer 1"
     inkscape:groupmode="layer"
     id="layer1"
     transform="translate(-119.58348,-121.61611)"><path
       d="m 639.26875,134.19151 a 4,4 0 0 1 4,4 4,4 0 0 1 -4,4 4,4 0 0 1 -4,-4 4,4 0 0 1 4,-4 m 0,10 c 4.42,0 8,1.79 8,4 v 2 h -16 v -2 c 0,-2.21 3.58,-4 8,-4 z"
       id="path1" /><path
       d="m 582.13638,221.41487 c -0.13,0 -0.26,0 -0.39,0.04 l -1.61,-3.25 c 0.45,-0.45 0.75,-1.08 0.75,-1.79 0,-1.38 -1.12,-2.5 -2.5,-2.5 -0.13,0 -0.25,0 -0.39,0.04 l -1.63,-3.25 c 0.48,-0.45 0.77,-1.08 0.77,-1.79 0,-1.38 -1.12,-2.5 -2.5,-2.5 -1.38,0 -2.5,1.12 -2.5,2.5 0,0.71 0.29,1.34 0.76,1.79 l -1.62,3.25 c -0.14,-0.04 -0.26,-0.04 -0.39,-0.04 -1.38,0 -2.5,1.12 -2.5,2.5 0,0.71 0.3,1.34 0.75,1.79 l -1.61,3.25 c -0.13,-0.04 -0.26,-0.04 -0.39,-0.04 -1.38,0 -2.5,1.12 -2.5,2.5 0,1.38 1.12,2.5 2.5,2.5 1.38,0 2.5,-1.12 2.5,-2.5 0,-0.7 -0.29,-1.34 -0.76,-1.79 l 1.62,-3.25 c 0.14,0.04 0.26,0.04 0.39,0.04 0.13,0 0.25,0 0.39,-0.04 l 1.63,3.25 c -0.47,0.45 -0.77,1.09 -0.77,1.79 0,1.38 1.12,2.5 2.5,2.5 1.38,0 2.5,-1.12 2.5,-2.5 0,-1.38 -1.12,-2.5 -2.5,-2.5 -0.13,0 -0.26,0 -0.39,0.04 l -1.61,-3.25 c 0.46,-0.45 0.75,-1.08 0.75,-1.79 0,-0.71 -0.29,-1.34 -0.75,-1.79 l 1.61,-3.25 c 0.13,0.04 0.26,0.04 0.39,0.04 0.13,0 0.26,0 0.39,-0.04 l 1.61,3.25 c -0.45,0.45 -0.75,1.09 -0.75,1.79 0,1.38 1.12,2.5 2.5,2.5 0.13,0 0.25,0 0.39,-0.04 l 1.63,3.25 c -0.47,0.45 -0.77,1.09 -0.77,1.79 0,1.38 1.12,2.5 2.5,2.5 1.38,0 2.5,-1.12 2.5,-2.5 0,-1.38 -1.12,-2.5 -2.5,-2.5 z"
       id="path1-3-2" /><g
       id="g2"
       transform="translate(59.852472,12.531835)"><path
         d="m 398.62829,208.83947 c -0.13,0 -0.26,0 -0.39,0.04 l -1.61,-3.25 c 0.45,-0.45 0.75,-1.08 0.75,-1.79 0,-1.38 -1.12,-2.5 -2.5,-2.5 -0.13,0 -0.25,0 -0.39,0.04 l -1.63,-3.25 c 0.48,-0.45 0.77,-1.08 0.77,-1.79 0,-1.38 -1.12,-2.5 -2.5,-2.5 -1.38,0 -2.5,1.12 -2.5,2.5 0,0.71 0.29,1.34 0.76,1.79 l -1.62,3.25 c -0.14,-0.04 -0.26,-0.04 -0.39,-0.04 -1.38,0 -2.5,1.12 -2.5,2.5 0,0.71 0.3,1.34 0.75,1.79 l -1.61,3.25 c -0.13,-0.04 -0.26,-0.04 -0.39,-0.04 -1.38,0 -2.5,1.12 -2.5,2.5 0,1.38 1.12,2.5 2.5,2.5 1.38,0 2.5,-1.12 2.5,-2.5 0,-0.7 -0.29,-1.34 -0.76,-1.79 l 1.62,-3.25 c 0.14,0.04 0.26,0.04 0.39,0.04 0.13,0 0.25,0 0.39,-0.04 l 1.63,3.25 c -0.47,0.45 -0.77,1.09 -0.77,1.79 0,1.38 1.12,2.5 2.5,2.5 1.38,0 2.5,-1.12 2.5,-2.5 0,-1.38 -1.12,-2.5 -2.5,-2.5 -0.13,0 -0.26,0 -0.39,0.04 l -1.61,-3.25 c 0.46,-0.45 0.75,-1.08 0.75,-1.79 0,-0.71 -0.29,-1.34 -0.75,-1.79 l 1.61,-3.25 c 0.13,0.04 0.26,0.04 0.39,0.04 0.13,0 0.26,0 0.39,-0.04 l 1.61,3.25 c -0.45,0.45 -0.75,1.09 -0.75,1.79 0,1.38 1.12,2.5 2.5,2.5 0.13,0 0.25,0 0.39,-0.04 l 1.63,3.25 c -0.47,0.45 -0.77,1.09 -0.77,1.79 0,1.38 1.12,2.5 2.5,2.5 1.38,0 2.5,-1.12 2.5,-2.5 0,-1.38 -1.12,-2.5 -2.5,-2.5 z"
         id="path1-3-7" /><path
         d="m 311.97287,208.83947 c -0.13,0 -0.26,0 -0.39,0.04 l -1.61,-3.25 c 0.45,-0.45 0.75,-1.08 0.75,-1.79 0,-1.38 -1.12,-2.5 -2.5,-2.5 -0.13,0 -0.25,0 -0.39,0.04 l -1.63,-3.25 c 0.48,-0.45 0.77,-1.08 0.77,-1.79 0,-1.38 -1.12,-2.5 -2.5,-2.5 -1.38,0 -2.5,1.12 -2.5,2.5 0,0.71 0.29,1.34 0.76,1.79 l -1.62,3.25 c -0.14,-0.04 -0.26,-0.04 -0.39,-0.04 -1.38,0 -2.5,1.12 -2.5,2.5 0,0.71 0.3,1.34 0.75,1.79 l -1.61,3.25 c -0.13,-0.04 -0.26,-0.04 -0.39,-0.04 -1.38,0 -2.5,1.12 -2.5,2.5 0,1.38 1.12,2.5 2.5,2.5 1.38,0 2.5,-1.12 2.5,-2.5 0,-0.7 -0.29,-1.34 -0.76,-1.79 l 1.62,-3.25 c 0.14,0.04 0.26,0.04 0.39,0.04 0.13,0 0.25,0 0.39,-0.04 l 1.63,3.25 c -0.47,0.45 -0.77,1.09 -0.77,1.79 0,1.38 1.12,2.5 2.5,2.5 1.38,0 2.5,-1.12 2.5,-2.5 0,-1.38 -1.12,-2.5 -2.5,-2.5 -0.13,0 -0.26,0 -0.39,0.04 l -1.61,-3.25 c 0.46,-0.45 0.75,-1.08 0.75,-1.79 0,-0.71 -0.29,-1.34 -0.75,-1.79 l 1.61,-3.25 c 0.13,0.04 0.26,0.04 0.39,0.04 0.13,0 0.26,0 0.39,-0.04 l 1.61,3.25 c -0.45,0.45 -0.75,1.09 -0.75,1.79 0,1.38 1.12,2.5 2.5,2.5 0.13,0 0.25,0 0.39,-0.04 l 1.63,3.25 c -0.47,0.45 -0.77,1.09 -0.77,1.79 0,1.38 1.12,2.5 2.5,2.5 1.38,0 2.5,-1.12 2.5,-2.5 0,-1.38 -1.12,-2.5 -2.5,-2.5 z"
         id="path1-3-29" /><path
         d="m 225.31744,208.83947 c -0.13,0 -0.26,0 -0.39,0.04 l -1.61,-3.25 c 0.45,-0.45 0.75,-1.08 0.75,-1.79 0,-1.38 -1.12,-2.5 -2.5,-2.5 -0.13,0 -0.25,0 -0.39,0.04 l -1.63,-3.25 c 0.48,-0.45 0.77,-1.08 0.77,-1.79 0,-1.38 -1.12,-2.5 -2.5,-2.5 -1.38,0 -2.5,1.12 -2.5,2.5 0,0.71 0.29,1.34 0.76,1.79 l -1.62,3.25 c -0.14,-0.04 -0.26,-0.04 -0.39,-0.04 -1.38,0 -2.5,1.12 -2.5,2.5 0,0.71 0.3,1.34 0.75,1.79 l -1.61,3.25 c -0.13,-0.04 -0.26,-0.04 -0.39,-0.04 -1.38,0 -2.5,1.12 -2.5,2.5 0,1.38 1.12,2.5 2.5,2.5 1.38,0 2.5,-1.12 2.5,-2.5 0,-0.7 -0.29,-1.34 -0.76,-1.79 l 1.62,-3.25 c 0.14,0.04 0.26,0.04 0.39,0.04 0.13,0 0.25,0 0.39,-0.04 l 1.63,3.25 c -0.47,0.45 -0.77,1.09 -0.77,1.79 0,1.38 1.12,2.5 2.5,2.5 1.38,0 2.5,-1.12 2.5,-2.5 0,-1.38 -1.12,-2.5 -2.5,-2.5 -0.13,0 -0.26,0 -0.39,0.04 l -1.61,-3.25 c 0.46,-0.45 0.75,-1.08 0.75,-1.79 0,-0.71 -0.29,-1.34 -0.75,-1.79 l 1.61,-3.25 c 0.13,0.04 0.26,0.04 0.39,0.04 0.13,0 0.26,0 0.39,-0.04 l 1.61,3.25 c -0.45,0.45 -0.75,1.09 -0.75,1.79 0,1.38 1.12,2.5 2.5,2.5 0.13,0 0.25,0 0.39,-0.04 l 1.63,3.25 c -0.47,0.45 -0.77,1.09 -0.77,1.79 0,1.38 1.12,2.5 2.5,2.5 1.38,0 2.5,-1.12 2.5,-2.5 0,-1.38 -1.12,-2.5 -2.5,-2.5 z"
         id="path1-3-4" /><path
         d="m 138.66202,208.83947 c -0.13,0 -0.26,0 -0.39,0.04 l -1.61,-3.25 c 0.45,-0.45 0.75,-1.08 0.75,-1.79 0,-1.38 -1.12,-2.5 -2.5,-2.5 -0.13,0 -0.25,0 -0.39,0.04 l -1.63,-3.25 c 0.48,-0.45 0.77,-1.08 0.77,-1.79 0,-1.38 -1.12,-2.5 -2.5,-2.5 -1.38,0 -2.5,1.12 -2.5,2.5 0,0.71 0.29,1.34 0.76,1.79 l -1.62,3.25 c -0.14,-0.04 -0.26,-0.04 -0.39,-0.04 -1.38,0 -2.5,1.12 -2.5,2.5 0,0.71 0.3,1.34 0.75,1.79 l -1.61,3.25 c -0.13,-0.04 -0.26,-0.04 -0.39,-0.04 -1.38,0 -2.5,1.12 -2.5,2.5 0,1.38 1.12,2.5 2.5,2.5 1.38,0 2.5,-1.12 2.5,-2.5 0,-0.7 -0.29,-1.34 -0.76,-1.79 l 1.62,-3.25 c 0.14,0.04 0.26,0.04 0.39,0.04 0.13,0 0.25,0 0.39,-0.04 l 1.63,3.25 c -0.47,0.45 -0.77,1.09 -0.77,1.79 0,1.38 1.12,2.5 2.5,2.5 1.38,0 2.5,-1.12 2.5,-2.5 0,-1.38 -1.12,-2.5 -2.5,-2.5 -0.13,0 -0.26,0 -0.39,0.04 l -1.61,-3.25 c 0.46,-0.45 0.75,-1.08 0.75,-1.79 0,-0.71 -0.29,-1.34 -0.75,-1.79 l 1.61,-3.25 c 0.13,0.04 0.26,0.04 0.39,0.04 0.13,0 0.26,0 0.39,-0.04 l 1.61,3.25 c -0.45,0.45 -0.75,1.09 -0.75,1.79 0,1.38 1.12,2.5 2.5,2.5 0.13,0 0.25,0 0.39,-0.04 l 1.63,3.25 c -0.47,0.45 -0.77,1.09 -0.77,1.79 0,1.38 1.12,2.5 2.5,2.5 1.38,0 2.5,-1.12 2.5,-2.5 0,-1.38 -1.12,-2.5 -2.5,-2.5 z"
         id="path1-3-5" /></g><g
       id="g3"
       transform="matrix(0.5418082,0,0,0.5418082,250.21556,161.88431)"><path
         d="m 128.87841,293.95453 h -1.5 v -4 c 0,-1.11 -0.9,-2 -2,-2 h -4 v -1.5 a 2.5,2.5 0 0 0 -2.5,-2.5 2.5,2.5 0 0 0 -2.5,2.5 v 1.5 h -4 a 2,2 0 0 0 -2,2 v 3.8 h 1.5 c 1.5,0 2.7,1.2 2.7,2.7 0,1.5 -1.2,2.7 -2.7,2.7 h -1.5 v 3.8 a 2,2 0 0 0 2,2 h 3.8 v -1.5 c 0,-1.5 1.2,-2.7 2.7,-2.7 1.5,0 2.7,1.2 2.7,2.7 v 1.5 h 3.8 a 2,2 0 0 0 2,-2 v -4 h 1.5 a 2.5,2.5 0 0 0 2.5,-2.5 2.5,2.5 0 0 0 -2.5,-2.5 z"
         id="path1-1" /><path
         d="m 147.78408,293.95453 h -1.5 v -4 c 0,-1.11 -0.9,-2 -2,-2 h -4 v -1.5 a 2.5,2.5 0 0 0 -2.5,-2.5 2.5,2.5 0 0 0 -2.5,2.5 v 1.5 h -4 a 2,2 0 0 0 -2,2 v 3.8 h 1.5 c 1.5,0 2.7,1.2 2.7,2.7 0,1.5 -1.2,2.7 -2.7,2.7 h -1.5 v 3.8 a 2,2 0 0 0 2,2 h 3.8 v -1.5 c 0,-1.5 1.2,-2.7 2.7,-2.7 1.5,0 2.7,1.2 2.7,2.7 v 1.5 h 3.8 a 2,2 0 0 0 2,-2 v -4 h 1.5 a 2.5,2.5 0 0 0 2.5,-2.5 2.5,2.5 0 0 0 -2.5,-2.5 z"
         id="path1-1-2" /><path
         d="m 128.87841,312.78657 h -1.5 v -4 c 0,-1.11 -0.9,-2 -2,-2 h -4 v -1.5 a 2.5,2.5 0 0 0 -2.5,-2.5 2.5,2.5 0 0 0 -2.5,2.5 v 1.5 h -4 a 2,2 0 0 0 -2,2 v 3.8 h 1.5 c 1.5,0 2.7,1.2 2.7,2.7 0,1.5 -1.2,2.7 -2.7,2.7 h -1.5 v 3.8 a 2,2 0 0 0 2,2 h 3.8 v -1.5 c 0,-1.5 1.2,-2.7 2.7,-2.7 1.5,0 2.7,1.2 2.7,2.7 v 1.5 h 3.8 a 2,2 0 0 0 2,-2 v -4 h 1.5 a 2.5,2.5 0 0 0 2.5,-2.5 2.5,2.5 0 0 0 -2.5,-2.5 z"
         id="path1-1-5" /><path
         d="m 147.78408,312.78657 h -1.5 v -4 c 0,-1.11 -0.9,-2 -2,-2 h -4 v -1.5 a 2.5,2.5 0 0 0 -2.5,-2.5 2.5,2.5 0 0 0 -2.5,2.5 v 1.5 h -4 a 2,2 0 0 0 -2,2 v 3.8 h 1.5 c 1.5,0 2.7,1.2 2.7,2.7 0,1.5 -1.2,2.7 -2.7,2.7 h -1.5 v 3.8 a 2,2 0 0 0 2,2 h 3.8 v -1.5 c 0,-1.5 1.2,-2.7 2.7,-2.7 1.5,0 2.7,1.2 2.7,2.7 v 1.5 h 3.8 a 2,2 0 0 0 2,-2 v -4 h 1.5 a 2.5,2.5 0 0 0 2.5,-2.5 2.5,2.5 0 0 0 -2.5,-2.5 z"
         id="path1-1-6" /></g><path
       d="m 636.3202,321.3581 h 12 v 1 h 3 v 2 h -3 v 2 h 3 v 2 h -3 v 2 h 3 v 2 h -3 v 2 h 3 v 2 h -3 v 1 h -12 v -1 h -3 v -2 h 3 v -2 h -3 v -2 h 3 v -2 h -3 v -2 h 3 v -2 h -3 v -2 h 3 v -1 m 5,11 v 3 h 1 v -3 h -1 m 2,0 v 3 h 1 v -3 h -1 m 2,0 v 3 h 1 v -3 z"
       id="path1-3" /><path
       d="m 636.2175,156.68051 -6.98397,6.98398 -3.20099,-3.20099 0.82062,-0.82062 2.38037,2.37455 6.16335,-6.15753 z"
       id="path1-2"
       style="stroke-width:0.581998" /><path
       d="m 652.26335,156.47297 -0.82061,-0.82062 -3.25337,3.25337 -3.25337,-3.25337 -0.82062,0.82062 3.25337,3.25337 -3.25337,3.25336 0.82062,0.82062 3.25337,-3.25337 3.25337,3.25337 0.82061,-0.82062 -3.25336,-3.25336 z"
       id="path1-4"
       style="stroke-width:0.581998" /><g
       id="g4"
       transform="translate(40.549047,-0.6342833)"><path
         d="m 137.96816,132.81747 c -1.95325,0 -3.51937,1.56612 -3.51937,3.51937 v 24.63562 c 0,1.95326 1.56612,3.51938 3.51937,3.51938 h 24.63562 c 1.95326,0 3.51938,-1.56612 3.51938,-3.51938 v -24.63562 c 0,-1.95325 -1.56612,-3.51937 -3.51938,-3.51937 h -24.63562 m 0,3.51937 h 24.63562 v 24.63562 h -24.63562 v -24.63562 m 3.51938,3.51938 v 3.51937 h 17.59687 v -3.51937 h -17.59687 m 0,7.03875 v 3.51937 h 17.59687 v -3.51937 h -17.59687 m 0,7.03875 v 3.51937 h 12.31781 v -3.51937 z"
         id="path1-6-3"
         style="stroke-width:1.75969" /><rect
         style="fill:#eeff01;fill-opacity:0.503086;stroke:none;stroke-width:1.76245;stroke-dasharray:none;stroke-opacity:1"
         id="rect13"
         width="20.724566"
         height="5.6858311"
         x="139.99762"
         y="138.62341" /></g><g
       id="g6"
       transform="translate(39.41764,-0.9102233)"><path
         d="m 312.21531,133.09341 c -1.95325,0 -3.51938,1.56612 -3.51938,3.51937 v 24.63562 c 0,1.95326 1.56613,3.51938 3.51938,3.51938 h 24.63562 c 1.95325,0 3.51937,-1.56612 3.51937,-3.51938 v -24.63562 c 0,-1.95325 -1.56612,-3.51937 -3.51937,-3.51937 h -24.63562 m 0,3.51937 h 24.63562 v 24.63562 h -24.63562 v -24.63562 m 3.51937,3.51938 v 3.51937 h 17.59687 v -3.51937 h -17.59687 m 0,7.03875 v 3.51937 h 17.59687 v -3.51937 h -17.59687 m 0,7.03875 v 3.51937 h 12.31781 v -3.51937 z"
         id="path1-6-26"
         style="stroke-width:1.75969" /><rect
         style="fill:#eeff01;fill-opacity:0.503086;stroke:none;stroke-width:1.54146;stroke-dasharray:none;stroke-opacity:1"
         id="rect13-8"
         width="15.853209"
         height="5.6858311"
         x="313.93051"
         y="152.99008" /></g><g
       id="g5"
       transform="translate(41.601624,-1.4537933)"><path
         d="m 223.47346,133.63698 c -1.95326,0 -3.51938,1.56612 -3.51938,3.51937 v 24.63562 c 0,1.95326 1.56612,3.51938 3.51938,3.51938 h 24.63561 c 1.95326,0 3.51938,-1.56612 3.51938,-3.51938 v -24.63562 c 0,-1.95325 -1.56612,-3.51937 -3.51938,-3.51937 h -24.63561 m 0,3.51937 h 24.63561 v 24.63562 h -24.63561 v -24.63562 m 3.51937,3.51938 v 3.51937 h 17.59687 v -3.51937 h -17.59687 m 0,7.03875 v 3.51937 h 17.59687 v -3.51937 h -17.59687 m 0,7.03875 v 3.51937 h 12.31781 v -3.51937 z"
         id="path1-6"
         style="stroke-width:1.75969" /><rect
         style="fill:#eeff01;fill-opacity:0.503086;stroke:none;stroke-width:1.76245;stroke-dasharray:none;stroke-opacity:1"
         id="rect13-6"
         width="20.724566"
         height="5.6858311"
         x="224.58376"
         y="146.72198" /><rect
         style="fill:#ff0101;fill-opacity:0.503086;stroke:none;stroke-width:1.76245;stroke-dasharray:none;stroke-opacity:1"
         id="rect13-7"
         width="20.724566"
         height="5.6858311"
         x="225.44157"
         y="139.88228" /></g><g
       id="g7"
       transform="translate(40.549047,-1.7816033)"><path
         d="m 397.64176,133.96479 c -1.95325,0 -3.51937,1.56612 -3.51937,3.51937 v 24.63562 c 0,1.95326 1.56612,3.51938 3.51937,3.51938 h 24.63562 c 1.95325,0 3.51937,-1.56612 3.51937,-3.51938 v -24.63562 c 0,-1.95325 -1.56612,-3.51937 -3.51937,-3.51937 h -24.63562 m 0,3.51937 h 24.63562 v 24.63562 h -24.63562 v -24.63562 m 3.51937,3.51938 v 3.51937 H 418.758 v -3.51937 h -17.59687 m 0,7.03875 v 3.51937 H 418.758 v -3.51937 h -17.59687 m 0,7.03875 v 3.51937 h 12.31781 v -3.51937 z"
         id="path1-6-9"
         style="stroke-width:1.75969" /><rect
         style="fill:#eeff01;fill-opacity:0.503086;stroke:none;stroke-width:1.76245;stroke-dasharray:none;stroke-opacity:1"
         id="rect13-3"
         width="20.724566"
         height="5.6858311"
         x="399.68085"
         y="140.30971" /><rect
         style="fill:#25ff01;fill-opacity:0.503086;stroke:none;stroke-width:1.76245;stroke-dasharray:none;stroke-opacity:1"
         id="rect13-1"
         width="20.724566"
         height="5.6858311"
         x="399.47632"
         y="146.94513" /></g><g
       id="g8"
       transform="translate(-38.592877,1.1541199)"><path
         d="m 640.38687,132.18319 c -1.95326,0 -3.51938,1.56612 -3.51938,3.51937 v 24.63562 c 0,1.95326 1.56612,3.51938 3.51938,3.51938 h 24.63565 c 1.9532,0 3.5193,-1.56612 3.5193,-3.51938 v -24.63562 c 0,-1.95325 -1.5661,-3.51937 -3.5193,-3.51937 h -24.63565 m 0,3.51937 h 24.63565 v 24.63562 h -24.63565 v -24.63562 m 3.51935,3.51938 v 3.51937 h 17.5969 v -3.51937 h -17.5969 m 0,7.03875 v 3.51937 h 17.5969 v -3.51937 h -17.5969 m 0,7.03874 v 3.51938 h 12.3178 v -3.51938 z"
         id="path1-6-2"
         style="stroke-width:1.75969"
         transform="translate(-40.54905,-1.1105543)" /><rect
         style="fill:#eeff01;fill-opacity:0.503086;stroke:none;stroke-width:1.76245;stroke-dasharray:none;stroke-opacity:1"
         id="rect13-4"
         width="20.724566"
         height="5.6858311"
         x="601.54913"
         y="144.2328" /><rect
         style="fill:#02ff01;fill-opacity:0.503086;stroke:none;stroke-width:1.76245;stroke-dasharray:none;stroke-opacity:1"
         id="rect13-41"
         width="20.724566"
         height="5.6858311"
         x="600.95544"
         y="137.14375" /></g><path
       style="fill:#000000;fill-opacity:1;stroke:#000000;stroke-width:0.852216;stroke-dasharray:none;stroke-opacity:1;marker-end:url(#ConcaveTriangle-8)"
       d="m 190.48333,168.036 v 29.9481"
       id="path14" /><path
       style="fill:#000000;fill-opacity:1;stroke:#000000;stroke-width:0.852216;stroke-dasharray:none;stroke-opacity:1;marker-end:url(#ConcaveTriangle-8-7)"
       d="m 277.63523,168.036 v 29.9481"
       id="path14-8" /><path
       style="fill:#000000;fill-opacity:1;stroke:#000000;stroke-width:0.852216;stroke-dasharray:none;stroke-opacity:1;marker-end:url(#ConcaveTriangle-8-8)"
       d="m 364.3677,168.036 v 29.9481"
       id="path14-3" /><path
       style="fill:#000000;fill-opacity:1;stroke:#000000;stroke-width:0.852216;stroke-dasharray:none;stroke-opacity:1;marker-end:url(#ConcaveTriangle-8-86)"
       d="m 451.25814,168.036 v 29.9481"
       id="path14-88" /><path
       style="fill:#000000;fill-opacity:1;stroke:#000000;stroke-width:0.852216;stroke-dasharray:none;stroke-opacity:1;marker-end:url(#ConcaveTriangle-8-76)"
       d="m 574.65898,168.07957 v 29.9481"
       id="path14-30" /><path
       style="fill:#000000;stroke:#000000;stroke-width:0.914531;stroke-dasharray:none;stroke-opacity:1;marker-end:url(#ConcaveTriangle-8)"
       d="m 623.84219,159.53915 -27.2592,-9.91803"
       id="path10" /><path
       style="fill:#000000;stroke:#000000;stroke-width:1.00157;stroke-dasharray:none;stroke-opacity:1;marker-end:url(#ConcaveTriangle)"
       d="m 198.90901,236.94821 103.22843,76.30967"
       id="path3" /><path
       style="fill:#000000;stroke:#000000;stroke-width:1.00157;stroke-dasharray:none;stroke-opacity:1;marker-end:url(#ConcaveTriangle-8)"
       d="M 441.80626,236.64352 338.57783,312.95319"
       id="path3-6" /><path
       style="fill:#000000;stroke:#000000;stroke-width:1.00157;stroke-dasharray:none;stroke-opacity:1"
       d="M 310.91769,310.4749 Z"
       id="path5" /><path
       style="fill:#000000;stroke:#000000;stroke-width:1.00157;stroke-dasharray:none;stroke-opacity:1;marker-end:url(#ConcaveTriangle)"
       d="m 280.70689,232.38865 28.73056,76.1835"
       id="path6" /><path
       style="fill:#000000;stroke:#000000;stroke-width:1.00157;stroke-dasharray:none;stroke-opacity:1;marker-end:url(#ConcaveTriangle-3)"
       d="m 361.14113,231.98319 -28.73056,76.1835"
       id="path6-2" /><path
       style="fill:#000000;stroke:#000000;stroke-width:0.881701;stroke-dasharray:none;stroke-opacity:1;marker-end:url(#DartArrow)"
       d="M 340.68104,328.0486 H 614.69917"
       id="path8" /><path
       style="font-weight:300;font-size:14.6667px;font-family:'Noto Sans';-inkscape-font-specification:'Noto Sans Light';white-space:pre;stroke:#000000;stroke-width:1.00157"
       d="m 294.6704,344.06792 q 1.89201,0 2.83067,0.73334 0.93867,0.73333 0.93867,2.22934 0,0.748 -0.24933,1.34933 -0.23467,0.60134 -0.73334,1.02667 -0.484,0.41067 -1.24667,0.63067 -0.748,0.22 -1.77467,0.22 h -1.52533 v 4.28268 h -0.85067 v -10.47203 z m -0.088,0.748 h -1.672 v 4.70802 h 1.43733 q 1.01201,0 1.73067,-0.22 0.73334,-0.23467 1.10001,-0.76267 0.38133,-0.54267 0.38133,-1.46667 0,-1.17334 -0.71867,-1.71601 -0.71867,-0.54267 -2.25867,-0.54267 z m 8.69736,1.78934 q 1.32001,0 1.96534,0.64534 0.64534,0.64533 0.64534,2.05334 v 5.23601 h -0.63067 l -0.14667,-1.32001 h -0.044 q -0.27867,0.44001 -0.64533,0.77734 -0.352,0.32267 -0.86534,0.51333 -0.49867,0.176 -1.232,0.176 -0.73334,0 -1.276,-0.24933 -0.54267,-0.264 -0.83601,-0.748 -0.29333,-0.484 -0.29333,-1.188 0,-1.15867 0.95334,-1.76001 0.95333,-0.616 2.772,-0.704 l 1.42267,-0.0587 v -0.55733 q 0,-1.15867 -0.46933,-1.628 -0.45467,-0.48401 -1.36401,-0.48401 -0.60133,0 -1.15866,0.16134 -0.54267,0.14666 -1.10001,0.42533 l -0.264,-0.66 q 0.54267,-0.27867 1.20267,-0.45467 0.66,-0.176 1.364,-0.176 z m 0.45467,4.04801 q -1.48133,0.0733 -2.21467,0.528 -0.73333,0.44 -0.73333,1.33467 0,0.71867 0.45466,1.10001 0.45467,0.36666 1.23201,0.36666 1.24667,0 1.90667,-0.68933 0.67467,-0.68934 0.68933,-1.93601 v -0.76267 z m 6.84934,3.32934 q 0.32267,0 0.616,-0.044 0.29334,-0.0587 0.51334,-0.132 v 0.67467 q -0.22,0.088 -0.55734,0.14667 -0.32266,0.0587 -0.68933,0.0587 -0.64534,0 -1.1,-0.23466 -0.45467,-0.24934 -0.70401,-0.76267 -0.23466,-0.51334 -0.23466,-1.32 v -4.95735 h -1.14401 v -0.46933 l 1.14401,-0.264 0.308,-1.80401 h 0.528 v 1.86267 h 2.40534 v 0.67467 h -2.40534 v 4.92801 q 0,0.80667 0.32267,1.23201 0.32266,0.41066 0.99733,0.41066 z m 4.98668,0 q 0.32267,0 0.616,-0.044 0.29334,-0.0587 0.51334,-0.132 v 0.67467 q -0.22,0.088 -0.55734,0.14667 -0.32267,0.0587 -0.68933,0.0587 -0.64534,0 -1.10001,-0.23466 -0.45466,-0.24934 -0.704,-0.76267 -0.23466,-0.51334 -0.23466,-1.32 v -4.95735 h -1.14401 v -0.46933 l 1.14401,-0.264 0.308,-1.80401 h 0.528 v 1.86267 h 2.40534 v 0.67467 h -2.40534 v 4.92801 q 0,0.80667 0.32267,1.23201 0.32266,0.41066 0.99733,0.41066 z m 5.73468,-7.39201 q 1.01201,0 1.67201,0.46933 0.67467,0.45467 1.012,1.26134 0.352,0.80666 0.352,1.86267 v 0.55733 h -5.57335 q 0,1.56934 0.71867,2.39067 0.73334,0.82134 2.06801,0.82134 0.73333,0 1.276,-0.11733 0.54267,-0.11734 1.188,-0.41067 v 0.76267 q -0.58667,0.264 -1.15867,0.38133 -0.572,0.11733 -1.33467,0.11733 -1.15867,0 -1.98,-0.484 -0.80667,-0.484 -1.232,-1.37867 -0.41067,-0.90933 -0.41067,-2.112 0,-1.20267 0.396,-2.12667 0.396,-0.92401 1.15867,-1.45201 0.76267,-0.54266 1.848,-0.54266 z m 0,0.704 q -1.08533,0 -1.74533,0.71867 -0.66001,0.704 -0.77734,2.03867 h 4.69335 q 0,-0.82134 -0.23467,-1.43734 -0.23467,-0.616 -0.71867,-0.968 -0.46933,-0.352 -1.21734,-0.352 z m 8.34536,-0.68934 q 0.29333,0 0.55733,0.044 0.27867,0.0293 0.49867,0.088 l -0.11733,0.76267 q -0.23467,-0.0587 -0.46934,-0.088 -0.23466,-0.044 -0.51333,-0.044 -0.528,0 -0.95334,0.20533 -0.42533,0.20534 -0.73333,0.58667 -0.308,0.38134 -0.46934,0.90934 -0.16133,0.528 -0.16133,1.188 v 4.28268 h -0.836 v -7.80269 h 0.704 l 0.088,1.46667 h 0.044 q 0.19067,-0.45466 0.51333,-0.80667 0.33734,-0.36666 0.80667,-0.572 0.46934,-0.22 1.04134,-0.22 z m 6.072,-0.0147 q 1.33467,0 2.03867,0.68933 0.704,0.68934 0.704,2.17067 v 5.08935 h -0.82134 v -5.04535 q 0,-1.12933 -0.51333,-1.65733 -0.51333,-0.52801 -1.51067,-0.52801 -1.276,0 -1.92134,0.74801 -0.64533,0.748 -0.64533,2.22933 v 4.25335 h -0.82134 v -7.80269 h 0.66 l 0.132,1.34934 h 0.044 q 0.22,-0.42534 0.58667,-0.76267 0.36667,-0.33733 0.88,-0.528 0.52801,-0.20533 1.18801,-0.20533 z m 10.14936,5.88134 q 0,0.704 -0.352,1.20267 -0.352,0.49867 -1.02667,0.76267 -0.67466,0.24933 -1.64267,0.24933 -0.80667,0 -1.43733,-0.14666 -0.63067,-0.14667 -1.07067,-0.352 v -0.80667 q 0.528,0.264 1.188,0.44 0.66,0.16133 1.33467,0.16133 1.17334,0 1.68667,-0.38133 0.51333,-0.396 0.51333,-1.07067 0,-0.44 -0.24933,-0.71867 -0.23467,-0.29333 -0.71867,-0.51333 -0.46933,-0.23467 -1.17333,-0.46934 -0.71867,-0.24933 -1.27601,-0.49867 -0.55733,-0.264 -0.86533,-0.66 -0.308,-0.396 -0.308,-1.08533 0,-0.93867 0.76267,-1.46667 0.76266,-0.528 2.03867,-0.528 0.704,0 1.30533,0.132 0.61601,0.132 1.11467,0.352 l -0.29333,0.68933 q -0.45467,-0.20533 -1.02667,-0.33733 -0.572,-0.132 -1.144,-0.132 -0.924,0 -1.43734,0.32266 -0.51333,0.32267 -0.51333,0.93867 0,0.46934 0.23466,0.74801 0.24934,0.264 0.71867,0.45466 0.484,0.19067 1.15867,0.44 0.68934,0.23467 1.24667,0.49867 0.572,0.264 0.89467,0.67467 0.33733,0.41067 0.33733,1.1 z"
       id="text9"
       aria-label="Patterns" /><path
       style="font-weight:300;font-size:14.6667px;font-family:'Noto Sans';-inkscape-font-specification:'Noto Sans Light';white-space:pre;stroke:#000000;stroke-width:1.00157"
       d="m 627.96423,356.12809 -3.76935,-9.57736 h -0.044 q 0.0293,0.264 0.0293,0.60134 0.0147,0.32266 0.0147,0.68933 0.0147,0.352 0.0147,0.73334 v 7.55335 h -0.792 v -10.47203 h 1.276 l 3.60801,9.18136 h 0.0587 l 3.65201,-9.18136 h 1.24666 v 10.47203 h -0.836 v -7.64135 q 0,-0.32267 0,-0.66001 0.0147,-0.33733 0.0293,-0.66 0.0147,-0.32266 0.0293,-0.60133 h -0.044 l -3.78401,9.56269 z m 14.59336,-3.90134 q 0,0.90933 -0.23467,1.65733 -0.22,0.73334 -0.67467,1.27601 -0.44,0.528 -1.1,0.82133 -0.66,0.29333 -1.51067,0.29333 -0.80667,0 -1.452,-0.27866 -0.63067,-0.29334 -1.08534,-0.82134 -0.45467,-0.54267 -0.68933,-1.29067 -0.23467,-0.748 -0.23467,-1.65733 0,-1.27601 0.41067,-2.17068 0.42533,-0.90933 1.21733,-1.39333 0.80667,-0.484 1.90667,-0.484 1.11467,0 1.87734,0.51333 0.77734,0.49867 1.17334,1.408 0.396,0.90934 0.396,2.12668 z m -6.11601,0 q 0,0.99733 0.27866,1.76 0.27867,0.748 0.86534,1.15867 0.58667,0.41067 1.46667,0.41067 0.90933,0 1.496,-0.41067 0.58667,-0.42534 0.86534,-1.17334 0.27866,-0.76267 0.27866,-1.74533 0,-0.98267 -0.264,-1.73068 -0.264,-0.748 -0.836,-1.17333 -0.572,-0.42534 -1.496,-0.42534 -1.33467,0 -1.99467,0.88001 -0.66,0.88 -0.66,2.44934 z m 11.04402,4.048 q -1.56933,0 -2.42,-0.99733 -0.836,-1.012 -0.836,-2.96267 0,-2.02401 0.88,-3.08001 0.89467,-1.056 2.44934,-1.056 0.66,0 1.144,0.20533 0.484,0.19067 0.82133,0.528 0.35201,0.33733 0.54267,0.76267 h 0.0587 q -0.0147,-0.352 -0.044,-0.76267 -0.0147,-0.42533 -0.0147,-0.76267 v -3.168 h 0.836 v 11.14669 h -0.67466 l -0.11734,-1.36401 h -0.044 q -0.20533,0.41067 -0.54267,0.76267 -0.33733,0.33734 -0.836,0.54267 -0.49867,0.20533 -1.20267,0.20533 z m 0.10267,-0.71866 q 1.364,0 1.92134,-0.82134 0.572,-0.82133 0.572,-2.376 v -0.132 q 0,-1.61334 -0.572,-2.46401 -0.55734,-0.86534 -1.86267,-0.86534 -1.26134,0 -1.90667,0.89467 -0.64534,0.88 -0.64534,2.53734 0,1.58401 0.616,2.40534 0.616,0.82134 1.87734,0.82134 z m 8.82937,-7.37735 q 1.012,0 1.672,0.46933 0.67467,0.45467 1.012,1.26134 0.352,0.80666 0.352,1.86267 v 0.55733 h -5.57334 q 0,1.56934 0.71867,2.39067 0.73333,0.82134 2.068,0.82134 0.73333,0 1.276,-0.11733 0.54267,-0.11734 1.18801,-0.41067 v 0.76267 q -0.58667,0.264 -1.15867,0.38133 -0.57201,0.11733 -1.33467,0.11733 -1.15867,0 -1.98001,-0.484 -0.80667,-0.484 -1.232,-1.37867 -0.41067,-0.90933 -0.41067,-2.112 0,-1.20267 0.396,-2.12667 0.396,-0.92401 1.15867,-1.45201 0.76267,-0.54266 1.84801,-0.54266 z m 0,0.704 q -1.08534,0 -1.74534,0.71867 -0.66,0.704 -0.77734,2.03867 h 4.69335 q 0,-0.82134 -0.23467,-1.43734 -0.23467,-0.616 -0.71867,-0.968 -0.46933,-0.352 -1.21733,-0.352 z m 5.98401,7.24535 h -0.836 V 344.9814 h 0.836 z"
       id="text9-8"
       aria-label="Model" /><path
       d="m 622.02912,225.816 -3.76934,-9.57736 h -0.044 q 0.0293,0.264 0.0293,0.60134 0.0147,0.32266 0.0147,0.68933 0.0147,0.352 0.0147,0.73334 v 7.55335 h -0.792 v -10.47203 h 1.276 l 3.60801,9.18136 h 0.0587 l 3.65201,-9.18136 h 1.24667 V 225.816 h -0.83601 v -7.64135 q 0,-0.32267 0,-0.66001 0.0147,-0.33733 0.0293,-0.66 0.0147,-0.32266 0.0293,-0.60133 h -0.044 l -3.78401,9.56269 z m 10.82402,-7.93469 q 1.32,0 1.96534,0.64534 0.64533,0.64533 0.64533,2.05334 v 5.23601 h -0.63067 l -0.14666,-1.32001 h -0.044 q -0.27867,0.44001 -0.64534,0.77734 -0.352,0.32267 -0.86533,0.51333 -0.49867,0.176 -1.23201,0.176 -0.73333,0 -1.276,-0.24933 -0.54267,-0.264 -0.836,-0.748 -0.29334,-0.484 -0.29334,-1.188 0,-1.15867 0.95334,-1.76001 0.95334,-0.616 2.77201,-0.704 l 1.42267,-0.0587 v -0.55733 q 0,-1.15867 -0.46934,-1.628 -0.45467,-0.48401 -1.364,-0.48401 -0.60134,0 -1.15867,0.16134 -0.54267,0.14666 -1.1,0.42533 l -0.264,-0.66 q 0.54266,-0.27867 1.20267,-0.45467 0.66,-0.176 1.364,-0.176 z m 0.45467,4.04801 q -1.48134,0.0733 -2.21468,0.528 -0.73333,0.44 -0.73333,1.33467 0,0.71867 0.45467,1.10001 0.45467,0.36666 1.232,0.36666 1.24667,0 1.90667,-0.68933 0.67467,-0.68934 0.68934,-1.93601 v -0.76267 z m 6.84933,3.32934 q 0.32267,0 0.61601,-0.044 0.29333,-0.0587 0.51333,-0.132 v 0.67467 q -0.22,0.088 -0.55733,0.14667 -0.32267,0.0587 -0.68934,0.0587 -0.64533,0 -1.1,-0.23466 -0.45467,-0.24934 -0.704,-0.76267 -0.23467,-0.51334 -0.23467,-1.32 v -4.95735 h -1.144 v -0.46933 l 1.144,-0.264 0.308,-1.80401 h 0.528 v 1.86267 h 2.40534 v 0.67467 h -2.40534 v 4.92801 q 0,0.80667 0.32267,1.23201 0.32267,0.41066 0.99733,0.41066 z m 5.91069,0.704 q -1.144,0 -1.95067,-0.46933 -0.792,-0.484 -1.21734,-1.37867 -0.41067,-0.89467 -0.41067,-2.156 0,-1.32001 0.46934,-2.22934 0.484,-0.90934 1.32,-1.37867 0.836,-0.484 1.96534,-0.484 0.55733,0 1.04133,0.11733 0.49867,0.10267 0.88001,0.27867 l -0.22,0.704 q -0.39601,-0.16134 -0.85067,-0.24934 -0.45467,-0.10266 -0.86534,-0.10266 -0.93867,0 -1.584,0.41067 -0.63067,0.396 -0.968,1.144 -0.32267,0.748 -0.32267,1.78934 0,0.968 0.27867,1.716 0.29333,0.73333 0.89466,1.144 0.60134,0.41067 1.54001,0.41067 0.572,0 1.07067,-0.11733 0.51333,-0.11734 0.93867,-0.30801 v 0.76267 q -0.38134,0.16134 -0.88001,0.27867 -0.49866,0.11733 -1.12933,0.11733 z m 4.67867,-7.71468 q 0,0.29333 -0.0147,0.572 -0.0147,0.27867 -0.0293,0.55734 h 0.0587 q 0.20533,-0.44001 0.572,-0.77734 0.36667,-0.33733 0.88,-0.528 0.52801,-0.19067 1.18801,-0.19067 0.89467,0 1.51067,0.308 0.616,0.29334 0.924,0.92401 0.32267,0.616 0.32267,1.61333 v 5.08935 h -0.82134 v -5.04535 q 0,-1.12933 -0.51333,-1.65733 -0.51334,-0.52801 -1.51067,-0.52801 -0.85067,0 -1.42267,0.33734 -0.572,0.32267 -0.86534,0.99733 -0.27867,0.66001 -0.27867,1.64267 v 4.25335 h -0.82133 v -11.14669 h 0.82133 z m 8.71203,4.53201 q 0,-0.64533 0.10267,-1.07067 0.11733,-0.44 0.38134,-0.792 0.27866,-0.36667 0.76266,-0.73334 0.54267,-0.44 0.89467,-0.77733 0.352,-0.33733 0.528,-0.71867 0.176,-0.38133 0.176,-0.95333 0,-0.89467 -0.55733,-1.33467 -0.55734,-0.45467 -1.51067,-0.45467 -0.63067,0 -1.15867,0.14666 -0.51333,0.14667 -1.02667,0.41067 l -0.308,-0.704 q 0.616,-0.29333 1.20267,-0.44 0.60133,-0.16133 1.33467,-0.16133 1.32,0 2.068,0.66 0.76267,0.64533 0.76267,1.86267 0,0.704 -0.23466,1.20267 -0.22001,0.484 -0.63067,0.88 -0.41067,0.396 -0.968,0.82134 -0.44001,0.33733 -0.68934,0.64533 -0.23467,0.29333 -0.33733,0.67467 -0.10267,0.36667 -0.10267,0.90933 v 0.22 h -0.68934 z m -0.24933,2.47867 q 0,-0.36666 0.16133,-0.54267 0.16134,-0.176 0.46934,-0.176 0.32267,0 0.484,0.176 0.16133,0.17601 0.16133,0.54267 0,0.352 -0.16133,0.54267 -0.16133,0.176 -0.484,0.176 -0.308,0 -0.46934,-0.176 -0.16133,-0.19067 -0.16133,-0.54267 z"
       id="text11"
       style="font-weight:300;font-size:14.6667px;font-family:'Noto Sans';-inkscape-font-specification:'Noto Sans Light';white-space:pre;stroke:#000000;stroke-width:1.00157"
       aria-label="Match?" /><path
       style="fill:#000000;stroke:#000000;stroke-width:0.955696;stroke-dasharray:none;stroke-opacity:1;marker-end:url(#ConcaveTriangle-8)"
       d="M 642.5652,312.47404 V 242.36807"
       id="path11" /><path
       style="fill:#000000;stroke:#000000;stroke-width:0.826931;stroke-dasharray:none;stroke-opacity:1;marker-end:url(#ConcaveTriangle-8)"
       d="m 594.01642,220.67681 h 10.88445"
       id="path12" /><path
       style="fill:#000000;stroke:#000000;stroke-width:0.928487;stroke-dasharray:none;stroke-opacity:1;marker-end:url(#ConcaveTriangle-8-86)"
       d="M 640.72665,205.11014 V 169.29993"
       id="path2" /><path
       style="font-weight:300;font-size:14.6667px;font-family:'Noto Sans';-inkscape-font-specification:'Noto Sans Light';white-space:pre;stroke:#000000;stroke-width:1.00157"
       d="m 141.13472,223.67412 -1.39334,-3.608 h -4.35601 l -1.408,3.608 h -0.86534 l 4.12134,-10.50135 h 0.76267 l 4.01868,10.50135 z m -3.06535,-8.15468 q -0.044,-0.14667 -0.132,-0.396 -0.088,-0.24934 -0.176,-0.528 -0.088,-0.27867 -0.176,-0.49867 -0.0733,0.24933 -0.16133,0.51333 -0.0733,0.264 -0.16133,0.49867 -0.0733,0.23467 -0.14667,0.42534 l -1.43734,3.76934 h 3.79868 z m 11.22003,5.44134 q 0,0.93867 -0.46934,1.58401 -0.45466,0.63067 -1.276,0.95333 -0.82134,0.32267 -1.86267,0.32267 -0.64534,0 -1.15867,-0.0733 -0.51333,-0.0587 -0.93867,-0.14667 -0.42533,-0.10266 -0.76267,-0.23466 v -0.85068 q 0.55734,0.22001 1.29067,0.39601 0.73334,0.16133 1.61334,0.16133 0.80667,0 1.408,-0.23467 0.616,-0.23466 0.95334,-0.68933 0.352,-0.45467 0.352,-1.14401 0,-0.63066 -0.29334,-1.02666 -0.27866,-0.39601 -0.88,-0.68934 -0.58667,-0.308 -1.51067,-0.616 -0.66,-0.23467 -1.188,-0.484 -0.51333,-0.24934 -0.88,-0.58667 -0.36667,-0.33733 -0.55734,-0.792 -0.19066,-0.45467 -0.19066,-1.1 0,-0.86534 0.44,-1.45201 0.44,-0.58667 1.188,-0.89467 0.76267,-0.308 1.716,-0.308 0.76267,0 1.45201,0.14667 0.68933,0.132 1.30533,0.41067 l -0.27866,0.73333 q -0.61601,-0.264 -1.24667,-0.396 -0.63067,-0.132 -1.26134,-0.132 -0.73333,0 -1.29067,0.22 -0.54267,0.20534 -0.85067,0.63067 -0.308,0.41067 -0.308,1.02667 0,0.67467 0.29334,1.08534 0.29333,0.41066 0.85066,0.68933 0.55734,0.264 1.36401,0.54267 0.924,0.32267 1.584,0.68933 0.67467,0.352 1.02667,0.88 0.36667,0.52801 0.36667,1.37867 z m 5.06,2.71334 h -0.85067 v -9.70935 h -3.37334 v -0.76267 h 7.59735 v 0.76267 h -3.37334 z m 8.78537,-2.068 q 0,0.704 -0.352,1.20267 -0.352,0.49867 -1.02667,0.76267 -0.67467,0.24933 -1.64267,0.24933 -0.80667,0 -1.43734,-0.14667 -0.63067,-0.14666 -1.07067,-0.352 v -0.80667 q 0.528,0.26401 1.188,0.44001 0.66001,0.16133 1.33467,0.16133 1.17334,0 1.68667,-0.38133 0.51334,-0.39601 0.51334,-1.07067 0,-0.44 -0.24934,-0.71867 -0.23466,-0.29334 -0.71866,-0.51334 -0.46934,-0.23466 -1.17334,-0.46933 -0.71867,-0.24933 -1.276,-0.49867 -0.55734,-0.264 -0.86534,-0.66 -0.308,-0.396 -0.308,-1.08534 0,-0.93866 0.76267,-1.46667 0.76267,-0.528 2.03867,-0.528 0.704,0 1.30534,0.132 0.616,0.132 1.11467,0.352 l -0.29334,0.68934 q -0.45467,-0.20534 -1.02667,-0.33734 -0.572,-0.132 -1.144,-0.132 -0.924,0 -1.43734,0.32267 -0.51333,0.32267 -0.51333,0.93867 0,0.46933 0.23467,0.748 0.24933,0.264 0.71867,0.45467 0.484,0.19067 1.15866,0.44 0.68934,0.23467 1.24667,0.49867 0.57201,0.264 0.89467,0.67467 0.33734,0.41066 0.33734,1.1 z"
       id="text1"
       aria-label="ASTs" /><path
       style="font-size:14.6667px;font-family:Hack;-inkscape-font-specification:Hack;text-align:center;text-anchor:middle;white-space:pre;stroke:#000000;stroke-width:1.00157"
       d="m 140.25284,134.77453 h -3.35873 v -1.21745 h 8.15691 v 1.21745 h -3.3444 v 9.47463 h -1.45378 z m 7.29754,1.45378 h 1.19597 l 0.1289,1.56836 q 0.33659,-0.85221 1.00977,-1.30338 0.68034,-0.45834 1.62565,-0.45834 0.98829,0 1.71876,0.50131 v 1.34635 q -0.77344,-0.63021 -1.83334,-0.63021 -1.21745,0 -1.86914,0.7806 -0.6517,0.77344 -0.6517,2.22722 v 3.98894 h -1.32487 z m 11.52281,8.22854 q -1.85482,0 -2.91472,-1.11003 -1.05274,-1.11719 -1.05274,-3.04363 0,-1.19597 0.41537,-2.16276 0.42253,-0.9668 1.2461,-1.53256 0.83073,-0.57292 2.04818,-0.57292 1.60417,0 2.48503,1.03125 0.88802,1.0241 0.88802,2.84311 v 0.64453 h -5.70769 v 0.043 q 0,1.25326 0.65885,1.99805 0.65886,0.7448 1.94792,0.7448 0.7448,0 1.43946,-0.23633 0.70183,-0.23633 1.35352,-0.57292 v 1.31055 q -0.68034,0.2793 -1.38216,0.44401 -0.69467,0.17188 -1.42514,0.17188 z m 1.79753,-4.93426 q 0,-0.66602 -0.20052,-1.20313 -0.20052,-0.53711 -0.64453,-0.85221 -0.43685,-0.31511 -1.16016,-0.31511 -0.73047,0 -1.22461,0.32227 -0.48698,0.3151 -0.76628,0.85221 -0.27214,0.53711 -0.34375,1.19597 z m 7.03257,4.93426 q -1.85482,0 -2.91472,-1.11003 -1.05274,-1.11719 -1.05274,-3.04363 0,-1.19597 0.41537,-2.16276 0.42253,-0.9668 1.2461,-1.53256 0.83073,-0.57292 2.04818,-0.57292 1.60417,0 2.48503,1.03125 0.88802,1.0241 0.88802,2.84311 v 0.64453 h -5.70769 v 0.043 q 0,1.25326 0.65885,1.99805 0.65886,0.7448 1.94792,0.7448 0.7448,0 1.43946,-0.23633 0.70182,-0.23633 1.35352,-0.57292 v 1.31055 q -0.68034,0.2793 -1.38217,0.44401 -0.69466,0.17188 -1.42513,0.17188 z m 1.79753,-4.93426 q 0,-0.66602 -0.20052,-1.20313 -0.20052,-0.53711 -0.64453,-0.85221 -0.43685,-0.31511 -1.16016,-0.31511 -0.73047,0 -1.22461,0.32227 -0.48698,0.3151 -0.76628,0.85221 -0.27214,0.53711 -0.34375,1.19597 z m 2.95769,-3.29428 h 1.08138 l 0.11459,0.6875 q 0.48698,-0.88086 1.43945,-0.88086 1.02409,0 1.42514,1.00977 0.48698,-1.00977 1.53255,-1.00977 0.97396,0 1.36068,0.73047 0.39388,0.75196 0.39388,2.83595 v 4.64779 h -1.20313 v -4.5905 q 0,-0.90235 -0.0501,-1.39649 -0.043,-0.49414 -0.14323,-0.73047 -0.17903,-0.39388 -0.70898,-0.39388 -0.54427,0 -0.75196,0.42969 -0.12174,0.25065 -0.17187,0.73047 -0.0501,0.47982 -0.0501,1.36068 v 4.5905 h -1.20313 v -4.5905 q 0,-0.86654 -0.0501,-1.375 -0.0501,-0.50847 -0.15755,-0.7448 -0.19336,-0.40104 -0.72331,-0.40104 -0.52995,0 -0.72331,0.42253 -0.11458,0.24349 -0.16471,0.74479 -0.0501,0.49414 -0.0501,1.35352 v 4.5905 h -1.19597 z m 11.79495,-1.45378 q -0.21485,0 -0.21485,-0.21484 v -1.23894 q 0,-0.21484 0.21485,-0.21484 h 1.03125 q 0.21484,0 0.21484,0.21484 v 1.23894 q 0,0.21484 -0.21484,0.21484 z m 2.40625,9.53193 q -1.18164,0 -1.83334,-0.75912 -0.64453,-0.76628 -0.64453,-2.14844 v -4.13934 h -1.75456 v -1.03125 h 3.07227 v 5.17059 q 0,0.8737 0.32943,1.33203 0.32943,0.45834 0.95964,0.45834 h 1.53972 v 1.11719 z m 4.07488,-8.07815 h 1.18881 l 0.12891,1.20313 q 0.7233,-1.39649 2.35612,-1.39649 2.45639,0 2.45639,3.24415 v 4.97006 h -1.32488 v -4.97006 q 0,-1.08138 -0.37955,-1.58985 -0.3724,-0.50846 -1.16016,-0.50846 -0.93816,0 -1.44662,0.66602 -0.5013,0.65885 -0.5013,1.86914 v 4.53321 h -1.31772 z m 12.28909,8.22854 q -1.85482,0 -2.91472,-1.11003 -1.05273,-1.11719 -1.05273,-3.04363 0,-1.19597 0.41536,-2.16276 0.42253,-0.9668 1.2461,-1.53256 0.83073,-0.57292 2.04818,-0.57292 1.60417,0 2.48503,1.03125 0.88803,1.0241 0.88803,2.84311 v 0.64453 h -5.7077 v 0.043 q 0,1.25326 0.65886,1.99805 0.65885,0.7448 1.94792,0.7448 0.74479,0 1.43945,-0.23633 0.70183,-0.23633 1.35352,-0.57292 v 1.31055 q -0.68034,0.2793 -1.38216,0.44401 -0.69467,0.17188 -1.42514,0.17188 z m 1.79753,-4.93426 q 0,-0.66602 -0.20052,-1.20313 -0.20052,-0.53711 -0.64453,-0.85221 -0.43685,-0.31511 -1.16016,-0.31511 -0.73047,0 -1.22461,0.32227 -0.48698,0.3151 -0.76628,0.85221 -0.27214,0.53711 -0.34375,1.19597 z m 4.33986,-3.29428 h 1.19596 l 0.12891,1.56836 q 0.33659,-0.85221 1.00977,-1.30338 0.68034,-0.45834 1.62565,-0.45834 0.98829,0 1.71876,0.50131 v 1.34635 q -0.77344,-0.63021 -1.83334,-0.63021 -1.21745,0 -1.86915,0.7806 -0.65169,0.77344 -0.65169,2.22722 v 3.98894 h -1.32487 z m 7.64845,-2.67123 h 2.16993 q 2.44923,0 3.60938,1.30339 1.16016,1.30339 1.16016,4.05339 0,2.72853 -1.16016,4.03192 -1.16015,1.30338 -3.60938,1.30338 h -2.16993 z m 2.14128,9.50328 q 1.83334,0 2.54949,-0.90235 0.72331,-0.89518 0.72331,-3.25847 0,-2.37045 -0.71615,-3.25847 -0.36523,-0.45833 -1.01693,-0.67318 -0.64453,-0.222 -1.53972,-0.222 h -0.6875 v 8.31447 z"
       id="text10"
       transform="translate(10.91427,141.75844)"
       aria-label="TreeminerD" /></g></svg>
