<?xml version="1.0" encoding="UTF-8" standalone="no"?>
<!-- Created with Inkscape (http://www.inkscape.org/) -->

<svg
   width="150mm"
   height="65mm"
   viewBox="0 0 566.92911 245.66929"
   version="1.1"
   id="svg1"
   xml:space="preserve"
   inkscape:version="1.3.2 (091e20ef0f, 2023-11-25)"
   sodipodi:docname="feedbackmethodoverview.svg"
   inkscape:export-filename="../../../dodona/feedback-prediction-article-tex/feedbackmethodoverview.png"
   inkscape:export-xdpi="96"
   inkscape:export-ydpi="96"
   xmlns:inkscape="http://www.inkscape.org/namespaces/inkscape"
   xmlns:sodipodi="http://sodipodi.sourceforge.net/DTD/sodipodi-0.dtd"
   xmlns="http://www.w3.org/2000/svg"
   xmlns:svg="http://www.w3.org/2000/svg"><sodipodi:namedview
     id="namedview1"
     pagecolor="#ffffff"
     bordercolor="#000000"
     borderopacity="0.25"
     inkscape:showpageshadow="2"
     inkscape:pageopacity="0.0"
     inkscape:pagecheckerboard="0"
     inkscape:deskcolor="#d1d1d1"
     inkscape:document-units="mm"
     inkscape:zoom="1.8827923"
     inkscape:cx="270.87428"
     inkscape:cy="93.212618"
     inkscape:window-width="1534"
     inkscape:window-height="2132"
     inkscape:window-x="11"
     inkscape:window-y="11"
     inkscape:window-maximized="0"
     inkscape:current-layer="layer1"
     inkscape:export-bgcolor="#ffffffff" /><defs
     id="defs1"><rect
       x="496.50118"
       y="88.720869"
       width="55.162418"
       height="23.122655"
       id="rect6" /><rect
       x="484.62553"
       y="222.32189"
       width="74.699972"
       height="22.047954"
       id="rect5" /><rect
       x="143.35424"
       y="217.61437"
       width="117.63612"
       height="19.502284"
       id="rect4" /><rect
       x="28.82811"
       y="145.70073"
       width="105.86213"
       height="24.006482"
       id="rect3" /><rect
       x="16.898522"
       y="80.401277"
       width="38.960999"
       height="23.896522"
       id="rect2" /><rect
       x="133.56245"
       y="130.90417"
       width="94.291634"
       height="20.221043"
       id="rect12" /><rect
       x="23.477077"
       y="80.721069"
       width="65.340591"
       height="30.699326"
       id="rect1" /><rect
       x="624.52576"
       y="193.55714"
       width="72.878258"
       height="23.079508"
       id="rect11" /><rect
       x="622.09778"
       y="215.66695"
       width="72.072853"
       height="16.414736"
       id="rect10" /><rect
       x="212.26193"
       y="330.18134"
       width="92.906319"
       height="17.407923"
       id="rect9" /><marker
       style="overflow:visible"
       id="DartArrow"
       refX="0"
       refY="0"
       orient="auto-start-reverse"
       inkscape:stockid="Dart arrow"
       markerWidth="1"
       markerHeight="1"
       viewBox="0 0 1 1"
       inkscape:isstock="true"
       inkscape:collect="always"
       preserveAspectRatio="xMidYMid"><path
         style="fill:context-stroke;fill-rule:evenodd;stroke:none"
         d="M 0,0 5,-5 -12.5,0 5,5 Z"
         transform="scale(-0.5)"
         id="path9" /></marker><marker
       style="overflow:visible"
       id="ConcaveTriangle"
       refX="0"
       refY="0"
       orient="auto-start-reverse"
       inkscape:stockid="Concave triangle arrow"
       markerWidth="1"
       markerHeight="1"
       viewBox="0 0 1 1"
       inkscape:isstock="true"
       inkscape:collect="always"
       preserveAspectRatio="xMidYMid"><path
         transform="scale(0.7)"
         d="M -2,-4 9,0 -2,4 c 2,-2.33 2,-5.66 0,-8 z"
         style="fill:context-stroke;fill-rule:evenodd;stroke:none"
         id="path7" /></marker><marker
       style="overflow:visible"
       id="ConcaveTriangle-3"
       refX="0"
       refY="0"
       orient="auto-start-reverse"
       inkscape:stockid="Concave triangle arrow"
       markerWidth="1"
       markerHeight="1"
       viewBox="0 0 1 1"
       inkscape:isstock="true"
       inkscape:collect="always"
       preserveAspectRatio="xMidYMid"><path
         transform="scale(0.7)"
         d="M -2,-4 9,0 -2,4 c 2,-2.33 2,-5.66 0,-8 z"
         style="fill:context-stroke;fill-rule:evenodd;stroke:none"
         id="path7-1" /></marker><marker
       style="overflow:visible"
       id="ConcaveTriangle-8"
       refX="0"
       refY="0"
       orient="auto-start-reverse"
       inkscape:stockid="Concave triangle arrow"
       markerWidth="1"
       markerHeight="1"
       viewBox="0 0 1 1"
       inkscape:isstock="true"
       inkscape:collect="always"
       preserveAspectRatio="xMidYMid"><path
         transform="scale(0.7)"
         d="M -2,-4 9,0 -2,4 c 2,-2.33 2,-5.66 0,-8 z"
         style="fill:context-stroke;fill-rule:evenodd;stroke:none"
         id="path7-9" /></marker><rect
       x="212.26193"
       y="330.18134"
       width="92.906319"
       height="17.407923"
       id="rect9-3" /><marker
       style="overflow:visible"
       id="ConcaveTriangle-8-7"
       refX="0"
       refY="0"
       orient="auto-start-reverse"
       inkscape:stockid="Concave triangle arrow"
       markerWidth="1"
       markerHeight="1"
       viewBox="0 0 1 1"
       inkscape:isstock="true"
       inkscape:collect="always"
       preserveAspectRatio="xMidYMid"><path
         transform="scale(0.7)"
         d="M -2,-4 9,0 -2,4 c 2,-2.33 2,-5.66 0,-8 z"
         style="fill:context-stroke;fill-rule:evenodd;stroke:none"
         id="path7-9-5" /></marker><marker
       style="overflow:visible"
       id="ConcaveTriangle-8-8"
       refX="0"
       refY="0"
       orient="auto-start-reverse"
       inkscape:stockid="Concave triangle arrow"
       markerWidth="1"
       markerHeight="1"
       viewBox="0 0 1 1"
       inkscape:isstock="true"
       inkscape:collect="always"
       preserveAspectRatio="xMidYMid"><path
         transform="scale(0.7)"
         d="M -2,-4 9,0 -2,4 c 2,-2.33 2,-5.66 0,-8 z"
         style="fill:context-stroke;fill-rule:evenodd;stroke:none"
         id="path7-9-9" /></marker><marker
       style="overflow:visible"
       id="ConcaveTriangle-8-86"
       refX="0"
       refY="0"
       orient="auto-start-reverse"
       inkscape:stockid="Concave triangle arrow"
       markerWidth="1"
       markerHeight="1"
       viewBox="0 0 1 1"
       inkscape:isstock="true"
       inkscape:collect="always"
       preserveAspectRatio="xMidYMid"><path
         transform="scale(0.7)"
         d="M -2,-4 9,0 -2,4 c 2,-2.33 2,-5.66 0,-8 z"
         style="fill:context-stroke;fill-rule:evenodd;stroke:none"
         id="path7-9-0" /></marker><marker
       style="overflow:visible"
       id="ConcaveTriangle-8-76"
       refX="0"
       refY="0"
       orient="auto-start-reverse"
       inkscape:stockid="Concave triangle arrow"
       markerWidth="1"
       markerHeight="1"
       viewBox="0 0 1 1"
       inkscape:isstock="true"
       inkscape:collect="always"
       preserveAspectRatio="xMidYMid"><path
         transform="scale(0.7)"
         d="M -2,-4 9,0 -2,4 c 2,-2.33 2,-5.66 0,-8 z"
         style="fill:context-stroke;fill-rule:evenodd;stroke:none"
         id="path7-9-4" /></marker></defs><g
     inkscape:label="Layer 1"
     inkscape:groupmode="layer"
     id="layer1"
     transform="translate(-119.58348,-121.61611)"><path
       d="m 503.09395,103.27871 -3.76,-10.016004 h -0.064 q 0.032,0.32 0.048,0.816 0.032,0.496 0.048,1.088 0.016,0.576 0.016,1.184 v 6.928004 h -1.328 V 91.854706 h 2.128 l 3.52,9.360004 h 0.064 l 3.584,-9.360004 h 2.112 v 11.424004 h -1.424 v -7.024004 q 0,-0.56 0.016,-1.104 0.016,-0.56 0.048,-1.04 0.032,-0.496 0.048,-0.832 h -0.064 l -3.808,10.000004 z m 12.528,-8.720004 q 1.568,0 2.32,0.688 0.752,0.688 0.752,2.192 v 5.840004 h -1.024 l -0.272,-1.216 h -0.064 q -0.368,0.464 -0.768,0.784 -0.384,0.304 -0.896,0.448 -0.496,0.144 -1.216,0.144 -0.768,0 -1.392,-0.272 -0.608,-0.272 -0.96,-0.832 -0.352,-0.576 -0.352,-1.44 0,-1.280004 1.008,-1.968004 1.008,-0.704 3.104,-0.768 l 1.456,-0.048 v -0.512 q 0,-1.072 -0.464,-1.488 -0.464,-0.416 -1.312,-0.416 -0.672,0 -1.28,0.208 -0.608,0.192 -1.136,0.448 l -0.432,-1.056 q 0.56,-0.304 1.328,-0.512 0.768,-0.224 1.6,-0.224 z m 0.416,4.576 q -1.6,0.064 -2.224,0.512 -0.608,0.448004 -0.608,1.264004 0,0.72 0.432,1.056 0.448,0.336 1.136,0.336 1.088,0 1.808,-0.592 0.72,-0.608 0.72,-1.856004 v -0.768 z m 8.17601,3.152004 q 0.32,0 0.656,-0.048 0.336,-0.064 0.544,-0.128 v 1.072 q -0.224,0.112 -0.64,0.176 -0.416,0.08 -0.8,0.08 -0.672,0 -1.248,-0.224 -0.56,-0.24 -0.912,-0.816 -0.352,-0.576 -0.352,-1.616 v -4.992004 h -1.216 v -0.672 l 1.232,-0.56 0.56,-1.824 h 0.832 v 1.968 h 2.48 v 1.088 h -2.48 v 4.960004 q 0,0.784 0.368,1.168 0.384,0.368 0.976,0.368 z m 6.352,1.152 q -1.136,0 -2.032,-0.464 -0.88,-0.464 -1.392,-1.44 -0.496,-0.976 -0.496,-2.496004 0,-1.584 0.528,-2.576 0.528,-0.992 1.424,-1.456 0.912,-0.464 2.064,-0.464 0.656,0 1.264,0.144 0.608,0.128 0.992,0.32 l -0.432,1.168 q -0.384,-0.144 -0.896,-0.272 -0.512,-0.128 -0.96,-0.128 -0.864,0 -1.424,0.368 -0.56,0.368 -0.832,1.088 -0.272,0.72 -0.272,1.792 0,1.024004 0.272,1.744004 0.272,0.72 0.816,1.088 0.544,0.368 1.36,0.368 0.704,0 1.232,-0.144 0.544,-0.144 0.992,-0.352 v 1.248 q -0.432,0.224 -0.96,0.336 -0.512,0.128 -1.248,0.128 z m 5.64799,-8.752004 q 0,0.304 -0.032,0.624 -0.016,0.32 -0.048,0.576 h 0.096 q 0.272,-0.448 0.688,-0.736 0.416,-0.288 0.928,-0.432 0.512,-0.16 1.056,-0.16 1.04,0 1.728,0.336 0.704,0.32 1.056,1.008 0.352,0.688 0.352,1.792 v 5.584004 h -1.392 v -5.488004 q 0,-1.04 -0.464,-1.552 -0.464,-0.512 -1.456,-0.512 -0.96,0 -1.504,0.368 -0.544,0.352 -0.784,1.056 -0.224,0.688 -0.224,1.696 v 4.432004 h -1.408 V 91.118706 h 1.408 z m 9.36,4.944 q 0,-0.608 0.112,-1.04 0.128,-0.448 0.416,-0.848 0.304,-0.4 0.816,-0.832 0.624,-0.528 0.96,-0.88 0.352,-0.352 0.496,-0.688 0.144,-0.336 0.144,-0.816 0,-0.768 -0.496,-1.184 -0.496,-0.416 -1.44,-0.416 -0.784,0 -1.392,0.208 -0.608,0.192 -1.168,0.464 l -0.496,-1.12 q 0.64,-0.336 1.408,-0.56 0.784,-0.224 1.744,-0.224 1.52,0 2.352,0.752 0.832,0.752 0.832,2.048 0,0.72 -0.24,1.232 -0.224,0.496 -0.656,0.928 -0.416,0.416 -0.992,0.896 -0.528,0.448 -0.816,0.784 -0.272,0.336 -0.368,0.672 -0.096,0.32 -0.096,0.784 v 0.272004 h -1.12 z m -0.368,2.784004 q 0,-0.592 0.272,-0.832 0.288,-0.24 0.72,-0.24 0.4,0 0.688,0.24 0.288,0.24 0.288,0.832 0,0.576 -0.288,0.832 -0.288,0.256 -0.688,0.256 -0.432,0 -0.72,-0.256 -0.272,-0.256 -0.272,-0.832 z"
       id="text5"
       style="font-size:16px;font-family:'Noto Sans';-inkscape-font-specification:'Noto Sans';white-space:pre"
       transform="translate(116.47971,121.61611)"
       aria-label="Match?" /><path
       d="m 639.26875,134.19151 a 4,4 0 0 1 4,4 4,4 0 0 1 -4,4 4,4 0 0 1 -4,-4 4,4 0 0 1 4,-4 m 0,10 c 4.42,0 8,1.79 8,4 v 2 h -16 v -2 c 0,-2.21 3.58,-4 8,-4 z"
       id="path1" /><path
       d="m 582.13638,221.41487 c -0.13,0 -0.26,0 -0.39,0.04 l -1.61,-3.25 c 0.45,-0.45 0.75,-1.08 0.75,-1.79 0,-1.38 -1.12,-2.5 -2.5,-2.5 -0.13,0 -0.25,0 -0.39,0.04 l -1.63,-3.25 c 0.48,-0.45 0.77,-1.08 0.77,-1.79 0,-1.38 -1.12,-2.5 -2.5,-2.5 -1.38,0 -2.5,1.12 -2.5,2.5 0,0.71 0.29,1.34 0.76,1.79 l -1.62,3.25 c -0.14,-0.04 -0.26,-0.04 -0.39,-0.04 -1.38,0 -2.5,1.12 -2.5,2.5 0,0.71 0.3,1.34 0.75,1.79 l -1.61,3.25 c -0.13,-0.04 -0.26,-0.04 -0.39,-0.04 -1.38,0 -2.5,1.12 -2.5,2.5 0,1.38 1.12,2.5 2.5,2.5 1.38,0 2.5,-1.12 2.5,-2.5 0,-0.7 -0.29,-1.34 -0.76,-1.79 l 1.62,-3.25 c 0.14,0.04 0.26,0.04 0.39,0.04 0.13,0 0.25,0 0.39,-0.04 l 1.63,3.25 c -0.47,0.45 -0.77,1.09 -0.77,1.79 0,1.38 1.12,2.5 2.5,2.5 1.38,0 2.5,-1.12 2.5,-2.5 0,-1.38 -1.12,-2.5 -2.5,-2.5 -0.13,0 -0.26,0 -0.39,0.04 l -1.61,-3.25 c 0.46,-0.45 0.75,-1.08 0.75,-1.79 0,-0.71 -0.29,-1.34 -0.75,-1.79 l 1.61,-3.25 c 0.13,0.04 0.26,0.04 0.39,0.04 0.13,0 0.26,0 0.39,-0.04 l 1.61,3.25 c -0.45,0.45 -0.75,1.09 -0.75,1.79 0,1.38 1.12,2.5 2.5,2.5 0.13,0 0.25,0 0.39,-0.04 l 1.63,3.25 c -0.47,0.45 -0.77,1.09 -0.77,1.79 0,1.38 1.12,2.5 2.5,2.5 1.38,0 2.5,-1.12 2.5,-2.5 0,-1.38 -1.12,-2.5 -2.5,-2.5 z"
       id="path1-3-2" /><g
       id="g2"
       transform="translate(59.852472,12.531835)"><path
         d="m 398.62829,208.83947 c -0.13,0 -0.26,0 -0.39,0.04 l -1.61,-3.25 c 0.45,-0.45 0.75,-1.08 0.75,-1.79 0,-1.38 -1.12,-2.5 -2.5,-2.5 -0.13,0 -0.25,0 -0.39,0.04 l -1.63,-3.25 c 0.48,-0.45 0.77,-1.08 0.77,-1.79 0,-1.38 -1.12,-2.5 -2.5,-2.5 -1.38,0 -2.5,1.12 -2.5,2.5 0,0.71 0.29,1.34 0.76,1.79 l -1.62,3.25 c -0.14,-0.04 -0.26,-0.04 -0.39,-0.04 -1.38,0 -2.5,1.12 -2.5,2.5 0,0.71 0.3,1.34 0.75,1.79 l -1.61,3.25 c -0.13,-0.04 -0.26,-0.04 -0.39,-0.04 -1.38,0 -2.5,1.12 -2.5,2.5 0,1.38 1.12,2.5 2.5,2.5 1.38,0 2.5,-1.12 2.5,-2.5 0,-0.7 -0.29,-1.34 -0.76,-1.79 l 1.62,-3.25 c 0.14,0.04 0.26,0.04 0.39,0.04 0.13,0 0.25,0 0.39,-0.04 l 1.63,3.25 c -0.47,0.45 -0.77,1.09 -0.77,1.79 0,1.38 1.12,2.5 2.5,2.5 1.38,0 2.5,-1.12 2.5,-2.5 0,-1.38 -1.12,-2.5 -2.5,-2.5 -0.13,0 -0.26,0 -0.39,0.04 l -1.61,-3.25 c 0.46,-0.45 0.75,-1.08 0.75,-1.79 0,-0.71 -0.29,-1.34 -0.75,-1.79 l 1.61,-3.25 c 0.13,0.04 0.26,0.04 0.39,0.04 0.13,0 0.26,0 0.39,-0.04 l 1.61,3.25 c -0.45,0.45 -0.75,1.09 -0.75,1.79 0,1.38 1.12,2.5 2.5,2.5 0.13,0 0.25,0 0.39,-0.04 l 1.63,3.25 c -0.47,0.45 -0.77,1.09 -0.77,1.79 0,1.38 1.12,2.5 2.5,2.5 1.38,0 2.5,-1.12 2.5,-2.5 0,-1.38 -1.12,-2.5 -2.5,-2.5 z"
         id="path1-3-7" /><path
         d="m 311.97287,208.83947 c -0.13,0 -0.26,0 -0.39,0.04 l -1.61,-3.25 c 0.45,-0.45 0.75,-1.08 0.75,-1.79 0,-1.38 -1.12,-2.5 -2.5,-2.5 -0.13,0 -0.25,0 -0.39,0.04 l -1.63,-3.25 c 0.48,-0.45 0.77,-1.08 0.77,-1.79 0,-1.38 -1.12,-2.5 -2.5,-2.5 -1.38,0 -2.5,1.12 -2.5,2.5 0,0.71 0.29,1.34 0.76,1.79 l -1.62,3.25 c -0.14,-0.04 -0.26,-0.04 -0.39,-0.04 -1.38,0 -2.5,1.12 -2.5,2.5 0,0.71 0.3,1.34 0.75,1.79 l -1.61,3.25 c -0.13,-0.04 -0.26,-0.04 -0.39,-0.04 -1.38,0 -2.5,1.12 -2.5,2.5 0,1.38 1.12,2.5 2.5,2.5 1.38,0 2.5,-1.12 2.5,-2.5 0,-0.7 -0.29,-1.34 -0.76,-1.79 l 1.62,-3.25 c 0.14,0.04 0.26,0.04 0.39,0.04 0.13,0 0.25,0 0.39,-0.04 l 1.63,3.25 c -0.47,0.45 -0.77,1.09 -0.77,1.79 0,1.38 1.12,2.5 2.5,2.5 1.38,0 2.5,-1.12 2.5,-2.5 0,-1.38 -1.12,-2.5 -2.5,-2.5 -0.13,0 -0.26,0 -0.39,0.04 l -1.61,-3.25 c 0.46,-0.45 0.75,-1.08 0.75,-1.79 0,-0.71 -0.29,-1.34 -0.75,-1.79 l 1.61,-3.25 c 0.13,0.04 0.26,0.04 0.39,0.04 0.13,0 0.26,0 0.39,-0.04 l 1.61,3.25 c -0.45,0.45 -0.75,1.09 -0.75,1.79 0,1.38 1.12,2.5 2.5,2.5 0.13,0 0.25,0 0.39,-0.04 l 1.63,3.25 c -0.47,0.45 -0.77,1.09 -0.77,1.79 0,1.38 1.12,2.5 2.5,2.5 1.38,0 2.5,-1.12 2.5,-2.5 0,-1.38 -1.12,-2.5 -2.5,-2.5 z"
         id="path1-3-29" /><path
         d="m 225.31744,208.83947 c -0.13,0 -0.26,0 -0.39,0.04 l -1.61,-3.25 c 0.45,-0.45 0.75,-1.08 0.75,-1.79 0,-1.38 -1.12,-2.5 -2.5,-2.5 -0.13,0 -0.25,0 -0.39,0.04 l -1.63,-3.25 c 0.48,-0.45 0.77,-1.08 0.77,-1.79 0,-1.38 -1.12,-2.5 -2.5,-2.5 -1.38,0 -2.5,1.12 -2.5,2.5 0,0.71 0.29,1.34 0.76,1.79 l -1.62,3.25 c -0.14,-0.04 -0.26,-0.04 -0.39,-0.04 -1.38,0 -2.5,1.12 -2.5,2.5 0,0.71 0.3,1.34 0.75,1.79 l -1.61,3.25 c -0.13,-0.04 -0.26,-0.04 -0.39,-0.04 -1.38,0 -2.5,1.12 -2.5,2.5 0,1.38 1.12,2.5 2.5,2.5 1.38,0 2.5,-1.12 2.5,-2.5 0,-0.7 -0.29,-1.34 -0.76,-1.79 l 1.62,-3.25 c 0.14,0.04 0.26,0.04 0.39,0.04 0.13,0 0.25,0 0.39,-0.04 l 1.63,3.25 c -0.47,0.45 -0.77,1.09 -0.77,1.79 0,1.38 1.12,2.5 2.5,2.5 1.38,0 2.5,-1.12 2.5,-2.5 0,-1.38 -1.12,-2.5 -2.5,-2.5 -0.13,0 -0.26,0 -0.39,0.04 l -1.61,-3.25 c 0.46,-0.45 0.75,-1.08 0.75,-1.79 0,-0.71 -0.29,-1.34 -0.75,-1.79 l 1.61,-3.25 c 0.13,0.04 0.26,0.04 0.39,0.04 0.13,0 0.26,0 0.39,-0.04 l 1.61,3.25 c -0.45,0.45 -0.75,1.09 -0.75,1.79 0,1.38 1.12,2.5 2.5,2.5 0.13,0 0.25,0 0.39,-0.04 l 1.63,3.25 c -0.47,0.45 -0.77,1.09 -0.77,1.79 0,1.38 1.12,2.5 2.5,2.5 1.38,0 2.5,-1.12 2.5,-2.5 0,-1.38 -1.12,-2.5 -2.5,-2.5 z"
         id="path1-3-4" /><path
         d="m 138.66202,208.83947 c -0.13,0 -0.26,0 -0.39,0.04 l -1.61,-3.25 c 0.45,-0.45 0.75,-1.08 0.75,-1.79 0,-1.38 -1.12,-2.5 -2.5,-2.5 -0.13,0 -0.25,0 -0.39,0.04 l -1.63,-3.25 c 0.48,-0.45 0.77,-1.08 0.77,-1.79 0,-1.38 -1.12,-2.5 -2.5,-2.5 -1.38,0 -2.5,1.12 -2.5,2.5 0,0.71 0.29,1.34 0.76,1.79 l -1.62,3.25 c -0.14,-0.04 -0.26,-0.04 -0.39,-0.04 -1.38,0 -2.5,1.12 -2.5,2.5 0,0.71 0.3,1.34 0.75,1.79 l -1.61,3.25 c -0.13,-0.04 -0.26,-0.04 -0.39,-0.04 -1.38,0 -2.5,1.12 -2.5,2.5 0,1.38 1.12,2.5 2.5,2.5 1.38,0 2.5,-1.12 2.5,-2.5 0,-0.7 -0.29,-1.34 -0.76,-1.79 l 1.62,-3.25 c 0.14,0.04 0.26,0.04 0.39,0.04 0.13,0 0.25,0 0.39,-0.04 l 1.63,3.25 c -0.47,0.45 -0.77,1.09 -0.77,1.79 0,1.38 1.12,2.5 2.5,2.5 1.38,0 2.5,-1.12 2.5,-2.5 0,-1.38 -1.12,-2.5 -2.5,-2.5 -0.13,0 -0.26,0 -0.39,0.04 l -1.61,-3.25 c 0.46,-0.45 0.75,-1.08 0.75,-1.79 0,-0.71 -0.29,-1.34 -0.75,-1.79 l 1.61,-3.25 c 0.13,0.04 0.26,0.04 0.39,0.04 0.13,0 0.26,0 0.39,-0.04 l 1.61,3.25 c -0.45,0.45 -0.75,1.09 -0.75,1.79 0,1.38 1.12,2.5 2.5,2.5 0.13,0 0.25,0 0.39,-0.04 l 1.63,3.25 c -0.47,0.45 -0.77,1.09 -0.77,1.79 0,1.38 1.12,2.5 2.5,2.5 1.38,0 2.5,-1.12 2.5,-2.5 0,-1.38 -1.12,-2.5 -2.5,-2.5 z"
         id="path1-3-5" /></g><g
       id="g3"
       transform="matrix(0.5418082,0,0,0.5418082,250.21556,161.88431)"><path
         d="m 128.87841,293.95453 h -1.5 v -4 c 0,-1.11 -0.9,-2 -2,-2 h -4 v -1.5 a 2.5,2.5 0 0 0 -2.5,-2.5 2.5,2.5 0 0 0 -2.5,2.5 v 1.5 h -4 a 2,2 0 0 0 -2,2 v 3.8 h 1.5 c 1.5,0 2.7,1.2 2.7,2.7 0,1.5 -1.2,2.7 -2.7,2.7 h -1.5 v 3.8 a 2,2 0 0 0 2,2 h 3.8 v -1.5 c 0,-1.5 1.2,-2.7 2.7,-2.7 1.5,0 2.7,1.2 2.7,2.7 v 1.5 h 3.8 a 2,2 0 0 0 2,-2 v -4 h 1.5 a 2.5,2.5 0 0 0 2.5,-2.5 2.5,2.5 0 0 0 -2.5,-2.5 z"
         id="path1-1" /><path
         d="m 147.78408,293.95453 h -1.5 v -4 c 0,-1.11 -0.9,-2 -2,-2 h -4 v -1.5 a 2.5,2.5 0 0 0 -2.5,-2.5 2.5,2.5 0 0 0 -2.5,2.5 v 1.5 h -4 a 2,2 0 0 0 -2,2 v 3.8 h 1.5 c 1.5,0 2.7,1.2 2.7,2.7 0,1.5 -1.2,2.7 -2.7,2.7 h -1.5 v 3.8 a 2,2 0 0 0 2,2 h 3.8 v -1.5 c 0,-1.5 1.2,-2.7 2.7,-2.7 1.5,0 2.7,1.2 2.7,2.7 v 1.5 h 3.8 a 2,2 0 0 0 2,-2 v -4 h 1.5 a 2.5,2.5 0 0 0 2.5,-2.5 2.5,2.5 0 0 0 -2.5,-2.5 z"
         id="path1-1-2" /><path
         d="m 128.87841,312.78657 h -1.5 v -4 c 0,-1.11 -0.9,-2 -2,-2 h -4 v -1.5 a 2.5,2.5 0 0 0 -2.5,-2.5 2.5,2.5 0 0 0 -2.5,2.5 v 1.5 h -4 a 2,2 0 0 0 -2,2 v 3.8 h 1.5 c 1.5,0 2.7,1.2 2.7,2.7 0,1.5 -1.2,2.7 -2.7,2.7 h -1.5 v 3.8 a 2,2 0 0 0 2,2 h 3.8 v -1.5 c 0,-1.5 1.2,-2.7 2.7,-2.7 1.5,0 2.7,1.2 2.7,2.7 v 1.5 h 3.8 a 2,2 0 0 0 2,-2 v -4 h 1.5 a 2.5,2.5 0 0 0 2.5,-2.5 2.5,2.5 0 0 0 -2.5,-2.5 z"
         id="path1-1-5" /><path
         d="m 147.78408,312.78657 h -1.5 v -4 c 0,-1.11 -0.9,-2 -2,-2 h -4 v -1.5 a 2.5,2.5 0 0 0 -2.5,-2.5 2.5,2.5 0 0 0 -2.5,2.5 v 1.5 h -4 a 2,2 0 0 0 -2,2 v 3.8 h 1.5 c 1.5,0 2.7,1.2 2.7,2.7 0,1.5 -1.2,2.7 -2.7,2.7 h -1.5 v 3.8 a 2,2 0 0 0 2,2 h 3.8 v -1.5 c 0,-1.5 1.2,-2.7 2.7,-2.7 1.5,0 2.7,1.2 2.7,2.7 v 1.5 h 3.8 a 2,2 0 0 0 2,-2 v -4 h 1.5 a 2.5,2.5 0 0 0 2.5,-2.5 2.5,2.5 0 0 0 -2.5,-2.5 z"
         id="path1-1-6" /></g><path
       d="m 633.35336,319.7585 h 12 v 1 h 3 v 2 h -3 v 2 h 3 v 2 h -3 v 2 h 3 v 2 h -3 v 2 h 3 v 2 h -3 v 1 h -12 v -1 h -3 v -2 h 3 v -2 h -3 v -2 h 3 v -2 h -3 v -2 h 3 v -2 h -3 v -2 h 3 v -1 m 5,11 v 3 h 1 v -3 h -1 m 2,0 v 3 h 1 v -3 h -1 m 2,0 v 3 h 1 v -3 z"
       id="path1-3" /><path
       d="m 636.2175,156.68051 -6.98397,6.98398 -3.20099,-3.20099 0.82062,-0.82062 2.38037,2.37455 6.16335,-6.15753 z"
       id="path1-2"
       style="stroke-width:0.581998" /><path
       d="m 652.26335,156.47297 -0.82061,-0.82062 -3.25337,3.25337 -3.25337,-3.25337 -0.82062,0.82062 3.25337,3.25337 -3.25337,3.25336 0.82062,0.82062 3.25337,-3.25337 3.25337,3.25337 0.82061,-0.82062 -3.25336,-3.25336 z"
       id="path1-4"
       style="stroke-width:0.581998" /><g
       id="g4"
       transform="translate(40.549047,-0.6342833)"><path
         d="m 137.96816,132.81747 c -1.95325,0 -3.51937,1.56612 -3.51937,3.51937 v 24.63562 c 0,1.95326 1.56612,3.51938 3.51937,3.51938 h 24.63562 c 1.95326,0 3.51938,-1.56612 3.51938,-3.51938 v -24.63562 c 0,-1.95325 -1.56612,-3.51937 -3.51938,-3.51937 h -24.63562 m 0,3.51937 h 24.63562 v 24.63562 h -24.63562 v -24.63562 m 3.51938,3.51938 v 3.51937 h 17.59687 v -3.51937 h -17.59687 m 0,7.03875 v 3.51937 h 17.59687 v -3.51937 h -17.59687 m 0,7.03875 v 3.51937 h 12.31781 v -3.51937 z"
         id="path1-6-3"
         style="stroke-width:1.75969" /><rect
         style="fill:#eeff01;fill-opacity:0.503086;stroke:none;stroke-width:1.76245;stroke-dasharray:none;stroke-opacity:1"
         id="rect13"
         width="20.724566"
         height="5.6858311"
         x="139.99762"
         y="138.62341" /></g><g
       id="g6"
       transform="translate(39.41764,-0.9102233)"><path
         d="m 312.21531,133.09341 c -1.95325,0 -3.51938,1.56612 -3.51938,3.51937 v 24.63562 c 0,1.95326 1.56613,3.51938 3.51938,3.51938 h 24.63562 c 1.95325,0 3.51937,-1.56612 3.51937,-3.51938 v -24.63562 c 0,-1.95325 -1.56612,-3.51937 -3.51937,-3.51937 h -24.63562 m 0,3.51937 h 24.63562 v 24.63562 h -24.63562 v -24.63562 m 3.51937,3.51938 v 3.51937 h 17.59687 v -3.51937 h -17.59687 m 0,7.03875 v 3.51937 h 17.59687 v -3.51937 h -17.59687 m 0,7.03875 v 3.51937 h 12.31781 v -3.51937 z"
         id="path1-6-26"
         style="stroke-width:1.75969" /><rect
         style="fill:#eeff01;fill-opacity:0.503086;stroke:none;stroke-width:1.54146;stroke-dasharray:none;stroke-opacity:1"
         id="rect13-8"
         width="15.853209"
         height="5.6858311"
         x="313.93051"
         y="152.99008" /></g><g
       id="g5"
       transform="translate(41.601624,-1.4537933)"><path
         d="m 223.47346,133.63698 c -1.95326,0 -3.51938,1.56612 -3.51938,3.51937 v 24.63562 c 0,1.95326 1.56612,3.51938 3.51938,3.51938 h 24.63561 c 1.95326,0 3.51938,-1.56612 3.51938,-3.51938 v -24.63562 c 0,-1.95325 -1.56612,-3.51937 -3.51938,-3.51937 h -24.63561 m 0,3.51937 h 24.63561 v 24.63562 h -24.63561 v -24.63562 m 3.51937,3.51938 v 3.51937 h 17.59687 v -3.51937 h -17.59687 m 0,7.03875 v 3.51937 h 17.59687 v -3.51937 h -17.59687 m 0,7.03875 v 3.51937 h 12.31781 v -3.51937 z"
         id="path1-6"
         style="stroke-width:1.75969" /><rect
         style="fill:#eeff01;fill-opacity:0.503086;stroke:none;stroke-width:1.76245;stroke-dasharray:none;stroke-opacity:1"
         id="rect13-6"
         width="20.724566"
         height="5.6858311"
         x="224.58376"
         y="146.72198" /><rect
         style="fill:#ff0101;fill-opacity:0.503086;stroke:none;stroke-width:1.76245;stroke-dasharray:none;stroke-opacity:1"
         id="rect13-7"
         width="20.724566"
         height="5.6858311"
         x="225.44157"
         y="139.88228" /></g><g
       id="g7"
       transform="translate(40.549047,-1.7816033)"><path
         d="m 397.64176,133.96479 c -1.95325,0 -3.51937,1.56612 -3.51937,3.51937 v 24.63562 c 0,1.95326 1.56612,3.51938 3.51937,3.51938 h 24.63562 c 1.95325,0 3.51937,-1.56612 3.51937,-3.51938 v -24.63562 c 0,-1.95325 -1.56612,-3.51937 -3.51937,-3.51937 h -24.63562 m 0,3.51937 h 24.63562 v 24.63562 h -24.63562 v -24.63562 m 3.51937,3.51938 v 3.51937 H 418.758 v -3.51937 h -17.59687 m 0,7.03875 v 3.51937 H 418.758 v -3.51937 h -17.59687 m 0,7.03875 v 3.51937 h 12.31781 v -3.51937 z"
         id="path1-6-9"
         style="stroke-width:1.75969" /><rect
         style="fill:#eeff01;fill-opacity:0.503086;stroke:none;stroke-width:1.76245;stroke-dasharray:none;stroke-opacity:1"
         id="rect13-3"
         width="20.724566"
         height="5.6858311"
         x="399.68085"
         y="140.30971" /><rect
         style="fill:#25ff01;fill-opacity:0.503086;stroke:none;stroke-width:1.76245;stroke-dasharray:none;stroke-opacity:1"
         id="rect13-1"
         width="20.724566"
         height="5.6858311"
         x="399.47632"
         y="146.94513" /></g><g
       id="g8"
       transform="translate(-38.592877,1.1541199)"><path
         d="m 640.38687,132.18319 c -1.95326,0 -3.51938,1.56612 -3.51938,3.51937 v 24.63562 c 0,1.95326 1.56612,3.51938 3.51938,3.51938 h 24.63565 c 1.9532,0 3.5193,-1.56612 3.5193,-3.51938 v -24.63562 c 0,-1.95325 -1.5661,-3.51937 -3.5193,-3.51937 h -24.63565 m 0,3.51937 h 24.63565 v 24.63562 h -24.63565 v -24.63562 m 3.51935,3.51938 v 3.51937 h 17.5969 v -3.51937 h -17.5969 m 0,7.03875 v 3.51937 h 17.5969 v -3.51937 h -17.5969 m 0,7.03874 v 3.51938 h 12.3178 v -3.51938 z"
         id="path1-6-2"
         style="stroke-width:1.75969"
         transform="translate(-40.54905,-1.1105543)" /><rect
         style="fill:#eeff01;fill-opacity:0.503086;stroke:none;stroke-width:1.76245;stroke-dasharray:none;stroke-opacity:1"
         id="rect13-4"
         width="20.724566"
         height="5.6858311"
         x="601.54913"
         y="144.2328" /><rect
         style="fill:#02ff01;fill-opacity:0.503086;stroke:none;stroke-width:1.76245;stroke-dasharray:none;stroke-opacity:1"
         id="rect13-41"
         width="20.724566"
         height="5.6858311"
         x="600.95544"
         y="137.14375" /></g><path
       style="fill:#000000;fill-opacity:1;stroke:#000000;stroke-width:0.852216;stroke-dasharray:none;stroke-opacity:1;marker-end:url(#ConcaveTriangle-8)"
       d="m 190.48333,168.036 v 29.9481"
       id="path14" /><path
       style="fill:#000000;fill-opacity:1;stroke:#000000;stroke-width:0.852216;stroke-dasharray:none;stroke-opacity:1;marker-end:url(#ConcaveTriangle-8-7)"
       d="m 277.63523,168.036 v 29.9481"
       id="path14-8" /><path
       style="fill:#000000;fill-opacity:1;stroke:#000000;stroke-width:0.852216;stroke-dasharray:none;stroke-opacity:1;marker-end:url(#ConcaveTriangle-8-8)"
       d="m 364.3677,168.036 v 29.9481"
       id="path14-3" /><path
       style="fill:#000000;fill-opacity:1;stroke:#000000;stroke-width:0.852216;stroke-dasharray:none;stroke-opacity:1;marker-end:url(#ConcaveTriangle-8-86)"
       d="m 451.25814,168.036 v 29.9481"
       id="path14-88" /><path
       style="fill:#000000;fill-opacity:1;stroke:#000000;stroke-width:0.852216;stroke-dasharray:none;stroke-opacity:1;marker-end:url(#ConcaveTriangle-8-76)"
       d="m 574.65898,168.07957 v 29.9481"
       id="path14-30" /><path
       style="fill:#000000;stroke:#000000;stroke-width:1.00157;stroke-dasharray:none;stroke-opacity:1;marker-end:url(#ConcaveTriangle)"
       d="m 198.90901,236.94821 103.22843,76.30967"
       id="path3" /><path
       style="fill:#000000;stroke:#000000;stroke-width:1.00157;stroke-dasharray:none;stroke-opacity:1;marker-end:url(#ConcaveTriangle-8)"
       d="M 441.80626,236.64352 338.57783,312.95319"
       id="path3-6" /><path
       style="fill:#000000;stroke:#000000;stroke-width:1.00157;stroke-dasharray:none;stroke-opacity:1"
       d="M 310.91769,310.4749 Z"
       id="path5" /><path
       style="fill:#000000;stroke:#000000;stroke-width:1.00157;stroke-dasharray:none;stroke-opacity:1;marker-end:url(#ConcaveTriangle)"
       d="m 280.70689,232.38865 28.73056,76.1835"
       id="path6" /><path
       style="fill:#000000;stroke:#000000;stroke-width:1.00157;stroke-dasharray:none;stroke-opacity:1;marker-end:url(#ConcaveTriangle-3)"
       d="m 361.14113,231.98319 -28.73056,76.1835"
       id="path6-2" /><path
       style="fill:#000000;stroke:#000000;stroke-width:0.881701;stroke-dasharray:none;stroke-opacity:1;marker-end:url(#DartArrow)"
       d="M 340.68104,328.0486 H 614.69917"
       id="path8" /><path
       style="fill:#000000;stroke:#000000;stroke-width:0.955696;stroke-dasharray:none;stroke-opacity:1;marker-end:url(#ConcaveTriangle-8)"
       d="M 640.43766,312.47404 V 242.36807"
       id="path11" /><path
       style="fill:#000000;stroke:#000000;stroke-width:0.826931;stroke-dasharray:none;stroke-opacity:1;marker-end:url(#ConcaveTriangle-8)"
       d="m 594.01642,220.67681 h 10.88445"
       id="path12" /><path
       style="fill:#000000;stroke:#000000;stroke-width:0.928487;stroke-dasharray:none;stroke-opacity:1;marker-end:url(#ConcaveTriangle-8-86)"
       d="M 640.43766,205.11014 V 169.29993"
       id="path2" /><path
       style="fill:#000000;stroke:#000000;stroke-width:1.01266;stroke-dasharray:none;stroke-opacity:1;marker-end:url(#ConcaveTriangle-8)"
       d="m 626.0242,147.65131 -25.39453,0.17829"
       id="path4" /><path
       d="m 25.618437,94.958394 -1.376,-3.536 h -4.528 l -1.36,3.536 h -1.456 l 4.464,-11.472 h 1.296 l 4.448,11.472 z m -3.088,-8.272 q -0.048,-0.128 -0.159999,-0.464 -0.112001,-0.336 -0.224001,-0.688 -0.096,-0.368 -0.16,-0.56 -0.08,0.32 -0.176,0.656 -0.08,0.32 -0.176,0.592 -0.08,0.272 -0.144,0.464 l -1.296,3.456 h 3.616 z m 12.624,5.216 q 0,1.024 -0.496,1.744 -0.496,0.704 -1.424,1.088 -0.912,0.384 -2.16,0.384 -0.64,0 -1.232,-0.064 -0.576,-0.064 -1.056,-0.176 -0.48,-0.128 -0.848,-0.304 v -1.376 q 0.576,0.256 1.424,0.464 0.864,0.208 1.776,0.208 0.848,0 1.424,-0.224 0.576,-0.224 0.864,-0.64 0.288,-0.416 0.288,-0.976 0,-0.56 -0.24,-0.944 -0.24,-0.384 -0.832,-0.704 -0.576,-0.336 -1.616,-0.704 -0.736,-0.272 -1.296,-0.576 -0.544,-0.32 -0.912,-0.72 -0.368,-0.4 -0.56,-0.912 -0.176,-0.512 -0.176,-1.184 0,-0.912 0.464,-1.552 0.464,-0.656 1.28,-1.008 0.832,-0.352 1.904,-0.352 0.944,0 1.728,0.176 0.784,0.176 1.424,0.464 l -0.448,1.232 q -0.592,-0.256 -1.296,-0.432 -0.688,-0.176 -1.44,-0.176 -0.72,0 -1.2,0.208 -0.48,0.208 -0.72,0.592 -0.24,0.368 -0.24,0.864 0,0.576 0.24,0.96 0.24,0.384 0.784,0.688 0.544,0.304 1.472,0.656 1.008,0.368 1.696,0.8 0.704,0.416 1.056,1.008 0.368,0.592 0.368,1.488 z m 5.919996,3.056 h -1.44 v -10.16 h -3.568 v -1.264 h 8.56 v 1.264 h -3.552 z m 9.712005,-2.368 q 0,0.832 -0.416,1.392 -0.416,0.56 -1.184,0.848 -0.768,0.288 -1.824,0.288 -0.896,0 -1.552,-0.144 -0.64,-0.144 -1.136,-0.4 v -1.28 q 0.512,0.256 1.232,0.48 0.736,0.208 1.488,0.208 1.072,0 1.552,-0.336 0.48,-0.352 0.48,-0.928 0,-0.32 -0.176,-0.576 -0.176,-0.256 -0.64,-0.512 -0.448,-0.256 -1.296,-0.576 -0.832,-0.32 -1.424,-0.64 -0.592,-0.32 -0.912,-0.768 -0.32,-0.448 -0.32,-1.152 0,-1.088 0.88,-1.68 0.896,-0.592 2.336,-0.592 0.784,0 1.456,0.16 0.688,0.144 1.28,0.416 l -0.48,1.12 q -0.544,-0.224 -1.136,-0.384 -0.592,-0.16 -1.216,-0.16 -0.864,0 -1.328,0.288 -0.448,0.272 -0.448,0.752 0,0.352 0.208,0.608 0.208,0.24 0.688,0.48 0.496,0.224 1.312,0.544 0.816,0.304 1.392,0.624 0.576,0.32 0.88,0.784 0.304,0.448 0.304,1.136 z"
       id="text1"
       style="font-size:16px;font-family:'Noto Sans';-inkscape-font-specification:'Noto Sans';white-space:pre"
       transform="translate(121.92998,127.22613)"
       aria-label="ASTs" /><path
       d="m 32.859375,149.52148 h -3.664063 v -1.32812 h 8.898438 v 1.32812 h -3.648438 v 10.33594 h -1.585937 z m 7.960937,1.58594 H 42.125 l 0.140625,1.71094 q 0.367187,-0.92969 1.101562,-1.42188 0.742188,-0.5 1.773438,-0.5 1.078125,0 1.875,0.54688 v 1.46875 q -0.84375,-0.6875 -2,-0.6875 -1.328125,0 -2.039063,0.85156 -0.710937,0.84375 -0.710937,2.42969 v 4.35156 h -1.445313 z m 12.570313,8.97656 q -2.023438,0 -3.179688,-1.21093 -1.148437,-1.21875 -1.148437,-3.32032 0,-1.30468 0.453125,-2.35937 0.460937,-1.05469 1.359375,-1.67188 0.90625,-0.625 2.234375,-0.625 1.75,0 2.710937,1.125 0.96875,1.11719 0.96875,3.10157 v 0.70312 H 50.5625 v 0.0469 q 0,1.36718 0.71875,2.17968 0.71875,0.8125 2.125,0.8125 0.8125,0 1.570312,-0.25781 0.765625,-0.25781 1.476563,-0.625 v 1.42969 q -0.742188,0.30469 -1.507813,0.48437 -0.757812,0.1875 -1.554687,0.1875 z m 1.960937,-5.38281 q 0,-0.72656 -0.21875,-1.3125 -0.21875,-0.58594 -0.703125,-0.92969 -0.476562,-0.34375 -1.265625,-0.34375 -0.796875,0 -1.335937,0.35157 -0.53125,0.34375 -0.835938,0.92968 -0.296875,0.58594 -0.375,1.30469 z m 7.671875,5.38281 q -2.023437,0 -3.179687,-1.21093 -1.148438,-1.21875 -1.148438,-3.32032 0,-1.30468 0.453125,-2.35937 0.460938,-1.05469 1.359375,-1.67188 0.90625,-0.625 2.234375,-0.625 1.75,0 2.710938,1.125 0.96875,1.11719 0.96875,3.10157 v 0.70312 h -6.226563 v 0.0469 q 0,1.36718 0.71875,2.17968 0.71875,0.8125 2.125,0.8125 0.8125,0 1.570313,-0.25781 0.765625,-0.25781 1.476562,-0.625 v 1.42969 q -0.742187,0.30469 -1.507812,0.48437 -0.757813,0.1875 -1.554688,0.1875 z m 1.960938,-5.38281 q 0,-0.72656 -0.21875,-1.3125 -0.21875,-0.58594 -0.703125,-0.92969 -0.476563,-0.34375 -1.265625,-0.34375 -0.796875,0 -1.335938,0.35157 -0.53125,0.34375 -0.835937,0.92968 -0.296875,0.58594 -0.375,1.30469 z m 3.226562,-3.59375 h 1.179688 l 0.125,0.75 q 0.53125,-0.96094 1.570312,-0.96094 1.117188,0 1.554688,1.10157 0.53125,-1.10157 1.671875,-1.10157 1.0625,0 1.484375,0.79688 0.429687,0.82031 0.429687,3.09375 v 5.07031 h -1.3125 v -5.00781 q 0,-0.98438 -0.05469,-1.52344 -0.04687,-0.53906 -0.15625,-0.79687 -0.195313,-0.42969 -0.773438,-0.42969 -0.59375,0 -0.820312,0.46875 -0.132813,0.27344 -0.1875,0.79687 -0.05469,0.52344 -0.05469,1.48438 v 5.00781 h -1.3125 v -5.00781 q 0,-0.94531 -0.05469,-1.5 -0.05469,-0.55469 -0.171875,-0.8125 -0.210938,-0.4375 -0.789063,-0.4375 -0.578125,0 -0.789062,0.46094 -0.125,0.26562 -0.179688,0.8125 -0.05469,0.53906 -0.05469,1.47656 v 5.00781 h -1.304688 z m 12.867188,-1.58594 q -0.234375,0 -0.234375,-0.23437 v -1.35156 q 0,-0.23438 0.234375,-0.23438 h 1.125 q 0.234375,0 0.234375,0.23438 v 1.35156 q 0,0.23437 -0.234375,0.23437 z m 2.625,10.39844 q -1.289063,0 -2,-0.82812 Q 81,158.25586 81,156.74805 v -4.51563 h -1.914063 v -1.125 H 82.4375 v 5.64063 q 0,0.95312 0.359375,1.45312 0.359375,0.5 1.046875,0.5 h 1.679687 v 1.21875 z m 4.445312,-8.8125 h 1.296875 l 0.140625,1.3125 q 0.789063,-1.52344 2.570313,-1.52344 2.679687,0 2.679687,3.53907 v 5.42187 h -1.445312 v -5.42187 q 0,-1.17969 -0.414063,-1.73438 -0.40625,-0.55469 -1.265625,-0.55469 -1.023437,0 -1.578125,0.72657 -0.546875,0.71875 -0.546875,2.03906 v 4.94531 h -1.4375 z m 13.406253,8.97656 q -2.02344,0 -3.17969,-1.21093 -1.148438,-1.21875 -1.148438,-3.32032 0,-1.30468 0.453125,-2.35937 0.460938,-1.05469 1.359375,-1.67188 0.90625,-0.625 2.234378,-0.625 1.75,0 2.71094,1.125 0.96875,1.11719 0.96875,3.10157 v 0.70312 h -6.226568 v 0.0469 q 0,1.36718 0.71875,2.17968 0.718748,0.8125 2.124998,0.8125 0.8125,0 1.57032,-0.25781 0.76562,-0.25781 1.47656,-0.625 v 1.42969 q -0.74219,0.30469 -1.50781,0.48437 -0.75782,0.1875 -1.55469,0.1875 z m 1.96094,-5.38281 q 0,-0.72656 -0.21875,-1.3125 -0.21875,-0.58594 -0.70313,-0.92969 -0.47656,-0.34375 -1.26562,-0.34375 -0.79688,0 -1.335943,0.35157 -0.53125,0.34375 -0.835937,0.92968 -0.296875,0.58594 -0.375,1.30469 z m 4.73437,-3.59375 h 1.30469 l 0.14062,1.71094 q 0.36719,-0.92969 1.10157,-1.42188 0.74218,-0.5 1.77343,-0.5 1.07813,0 1.875,0.54688 v 1.46875 q -0.84375,-0.6875 -2,-0.6875 -1.32812,0 -2.03906,0.85156 -0.71094,0.84375 -0.71094,2.42969 v 4.35156 H 108.25 Z m 8.34375,-2.91406 h 2.36719 q 2.67187,0 3.9375,1.42187 1.26562,1.42188 1.26562,4.42188 0,2.97656 -1.26562,4.39844 -1.26563,1.42187 -3.9375,1.42187 h -2.36719 z m 2.33594,10.36719 q 2,0 2.78125,-0.98438 0.78906,-0.97656 0.78906,-3.55469 0,-2.58593 -0.78125,-3.55468 -0.39844,-0.5 -1.10937,-0.73438 -0.70313,-0.24219 -1.67969,-0.24219 h -0.75 v 9.07032 z"
       id="text2"
       style="font-size:16px;font-family:Hack;-inkscape-font-specification:Hack;white-space:pre"
       transform="translate(118.56687,129.28009)"
       aria-label="TreeminerD" /><path
       d="m 147.92952,220.74924 q 2.24,0 3.264,0.88 1.024,0.88 1.024,2.48 0,0.704 -0.24,1.36 -0.224,0.64 -0.752,1.152 -0.528,0.512 -1.408,0.816 -0.88,0.288 -2.16,0.288 h -1.312 v 4.448 h -1.44 v -11.424 z m -0.128,1.232 h -1.456 v 4.512 h 1.152 q 1.088,0 1.808,-0.224 0.72,-0.24 1.072,-0.752 0.352,-0.512 0.352,-1.344 0,-1.104 -0.704,-1.648 -0.704,-0.544 -2.224,-0.544 z m 9.83999,1.472 q 1.568,0 2.32,0.688 0.752,0.688 0.752,2.192 v 5.84 h -1.024 l -0.272,-1.216 h -0.064 q -0.368,0.464 -0.768,0.784 -0.384,0.304 -0.896,0.448 -0.496,0.144 -1.216,0.144 -0.768,0 -1.392,-0.272 -0.608,-0.272 -0.96,-0.832 -0.352,-0.576 -0.352,-1.44 0,-1.28 1.008,-1.968 1.008,-0.704 3.104,-0.768 l 1.456,-0.048 v -0.512 q 0,-1.072 -0.464,-1.488 -0.464,-0.416 -1.312,-0.416 -0.672,0 -1.28,0.208 -0.608,0.192 -1.136,0.448 l -0.432,-1.056 q 0.56,-0.304 1.328,-0.512 0.768,-0.224 1.6,-0.224 z m 0.416,4.576 q -1.6,0.064 -2.224,0.512 -0.608,0.448 -0.608,1.264 0,0.72 0.432,1.056 0.448,0.336 1.136,0.336 1.088,0 1.808,-0.592 0.72,-0.608 0.72,-1.856 v -0.768 z m 8.17601,3.152 q 0.32,0 0.656,-0.048 0.336,-0.064 0.544,-0.128 v 1.072 q -0.224,0.112 -0.64,0.176 -0.416,0.08 -0.8,0.08 -0.672,0 -1.248,-0.224 -0.56,-0.24 -0.912,-0.816 -0.352,-0.576 -0.352,-1.616 v -4.992 h -1.216 v -0.672 l 1.232,-0.56 0.56,-1.824 h 0.832 v 1.968 h 2.48 v 1.088 h -2.48 v 4.96 q 0,0.784 0.368,1.168 0.384,0.368 0.976,0.368 z m 5.776,0 q 0.32,0 0.656,-0.048 0.336,-0.064 0.544,-0.128 v 1.072 q -0.224,0.112 -0.64,0.176 -0.416,0.08 -0.8,0.08 -0.672,0 -1.248,-0.224 -0.56,-0.24 -0.912,-0.816 -0.352,-0.576 -0.352,-1.616 v -4.992 h -1.216 v -0.672 l 1.232,-0.56 0.56,-1.824 h 0.832 v 1.968 h 2.48 v 1.088 h -2.48 v 4.96 q 0,0.784 0.368,1.168 0.384,0.368 0.976,0.368 z m 6.224,-7.744 q 1.104,0 1.888,0.48 0.8,0.48 1.216,1.36 0.432,0.864 0.432,2.032 v 0.848 h -5.872 q 0.032,1.456 0.736,2.224 0.72,0.752 2,0.752 0.816,0 1.44,-0.144 0.64,-0.16 1.312,-0.448 v 1.232 q -0.656,0.288 -1.296,0.416 -0.64,0.144 -1.52,0.144 -1.216,0 -2.16,-0.496 -0.928,-0.496 -1.456,-1.472 -0.512,-0.992 -0.512,-2.416 0,-1.408 0.464,-2.416 0.48,-1.008 1.328,-1.552 0.864,-0.544 2,-0.544 z m -0.016,1.152 q -1.008,0 -1.6,0.656 -0.576,0.64 -0.688,1.792 h 4.368 q 0,-0.736 -0.224,-1.28 -0.224,-0.544 -0.688,-0.848 -0.448,-0.32 -1.168,-0.32 z m 9.72799,-1.152 q 0.24,0 0.512,0.032 0.288,0.016 0.496,0.064 l -0.176,1.296 q -0.208,-0.048 -0.464,-0.08 -0.24,-0.032 -0.464,-0.032 -0.496,0 -0.944,0.208 -0.448,0.208 -0.8,0.592 -0.352,0.368 -0.56,0.896 -0.192,0.528 -0.192,1.184 v 4.576 h -1.408 v -8.576 h 1.152 l 0.16,1.568 h 0.064 q 0.272,-0.48 0.656,-0.864 0.384,-0.4 0.88,-0.624 0.496,-0.24 1.088,-0.24 z m 6.736,0 q 1.536,0 2.32,0.752 0.784,0.736 0.784,2.4 v 5.584 h -1.392 v -5.488 q 0,-1.04 -0.464,-1.552 -0.464,-0.512 -1.456,-0.512 -1.424,0 -1.968,0.8 -0.544,0.8 -0.544,2.304 v 4.448 h -1.408 v -8.576 h 1.136 l 0.208,1.168 h 0.08 q 0.288,-0.448 0.704,-0.736 0.432,-0.304 0.944,-0.448 0.512,-0.144 1.056,-0.144 z m 11.344,6.368 q 0,0.832 -0.416,1.392 -0.416,0.56 -1.184,0.848 -0.768,0.288 -1.824,0.288 -0.896,0 -1.552,-0.144 -0.64,-0.144 -1.136,-0.4 v -1.28 q 0.512,0.256 1.232,0.48 0.736,0.208 1.488,0.208 1.072,0 1.552,-0.336 0.48,-0.352 0.48,-0.928 0,-0.32 -0.176,-0.576 -0.176,-0.256 -0.64,-0.512 -0.448,-0.256 -1.296,-0.576 -0.832,-0.32 -1.424,-0.64 -0.592,-0.32 -0.912,-0.768 -0.32,-0.448 -0.32,-1.152 0,-1.088 0.88,-1.68 0.896,-0.592 2.336,-0.592 0.784,0 1.456,0.16 0.688,0.144 1.28,0.416 l -0.48,1.12 q -0.544,-0.224 -1.136,-0.384 -0.592,-0.16 -1.216,-0.16 -0.864,0 -1.328,0.288 -0.448,0.272 -0.448,0.752 0,0.352 0.208,0.608 0.208,0.24 0.688,0.48 0.496,0.224 1.312,0.544 0.816,0.304 1.392,0.624 0.576,0.32 0.88,0.784 0.304,0.448 0.304,1.136 z"
       id="text3"
       style="font-size:16px;font-family:'Noto Sans';-inkscape-font-specification:'Noto Sans';white-space:pre"
       transform="translate(144.25802,124.6198)"
       aria-label="Patterns" /><path
       d="m 491.217,236.88027 -3.76,-10.016 h -0.064 q 0.032,0.32 0.048,0.816 0.032,0.496 0.048,1.088 0.016,0.576 0.016,1.184 v 6.928 h -1.328 v -11.424 h 2.128 l 3.52,9.36 h 0.064 l 3.584,-9.36 h 2.112 v 11.424 h -1.424 v -7.024 q 0,-0.56 0.016,-1.104 0.016,-0.56 0.048,-1.04 0.032,-0.496 0.048,-0.832 h -0.064 l -3.808,10 z m 16.73599,-4.304 q 0,1.072 -0.288,1.904 -0.272,0.816 -0.8,1.392 -0.512,0.576 -1.264,0.88 -0.736,0.288 -1.648,0.288 -0.848,0 -1.568,-0.288 -0.72,-0.304 -1.248,-0.88 -0.528,-0.576 -0.832,-1.392 -0.288,-0.832 -0.288,-1.904 0,-1.424 0.48,-2.4 0.48,-0.992 1.376,-1.504 0.896,-0.528 2.128,-0.528 1.168,0 2.048,0.528 0.896,0.512 1.392,1.504 0.512,0.976 0.512,2.4 z m -6.48,0 q 0,1.008 0.256,1.76 0.272,0.736 0.832,1.136 0.56,0.4 1.424,0.4 0.864,0 1.424,-0.4 0.56,-0.4 0.816,-1.136 0.272,-0.752 0.272,-1.76 0,-1.024 -0.272,-1.744 -0.272,-0.72 -0.832,-1.104 -0.544,-0.4 -1.424,-0.4 -1.312,0 -1.904,0.864 -0.592,0.864 -0.592,2.384 z m 11.744,4.464 q -1.6,0 -2.56,-1.104 -0.96,-1.12 -0.96,-3.328 0,-2.208 0.96,-3.328 0.976,-1.136 2.576,-1.136 0.672,0 1.168,0.176 0.496,0.16 0.864,0.448 0.368,0.288 0.624,0.64 h 0.096 q -0.016,-0.208 -0.064,-0.608 -0.032,-0.416 -0.032,-0.656 v -3.424 h 1.408 v 12.16 h -1.136 l -0.208,-1.152 h -0.064 q -0.256,0.368 -0.624,0.672 -0.368,0.288 -0.88,0.464 -0.496,0.176 -1.168,0.176 z m 0.224,-1.168 q 1.36,0 1.904,-0.736 0.56,-0.752 0.56,-2.256 v -0.256 q 0,-1.6 -0.528,-2.448 -0.528,-0.864 -1.952,-0.864 -1.136,0 -1.712,0.912 -0.56,0.896 -0.56,2.416 0,1.536 0.56,2.384 0.576,0.848 1.728,0.848 z m 9.88799,-7.728 q 1.104,0 1.888,0.48 0.8,0.48 1.216,1.36 0.432,0.864 0.432,2.032 v 0.848 h -5.872 q 0.032,1.456 0.736,2.224 0.72,0.752 2,0.752 0.816,0 1.44,-0.144 0.64,-0.16 1.312,-0.448 v 1.232 q -0.656,0.288 -1.296,0.416 -0.64,0.144 -1.52,0.144 -1.216,0 -2.16,-0.496 -0.928,-0.496 -1.456,-1.472 -0.512,-0.992 -0.512,-2.416 0,-1.408 0.464,-2.416 0.48,-1.008 1.328,-1.552 0.864,-0.544 2,-0.544 z m -0.016,1.152 q -1.008,0 -1.6,0.656 -0.576,0.64 -0.688,1.792 h 4.368 q 0,-0.736 -0.224,-1.28 -0.224,-0.544 -0.688,-0.848 -0.448,-0.32 -1.168,-0.32 z m 7.13599,7.584 h -1.408 v -12.16 h 1.408 z"
       id="text4"
       style="font-size:16px;font-family:'Noto Sans';-inkscape-font-specification:'Noto Sans';white-space:pre"
       transform="translate(135.28904,119.91277)"
       aria-label="Model" /></g></svg>
